<svg width="477" height="310" viewBox="0 0 477 310" fill="none" xmlns="http://www.w3.org/2000/svg">
<path d="M99.3854 2.3702C100.369 2.36643 101.352 2.36266 102.365 2.35877C103.466 2.35833 104.568 2.35796 105.669 2.35765C106.831 2.35467 107.993 2.35137 109.155 2.34778C112.361 2.33887 115.566 2.33469 118.772 2.3313C122.224 2.32688 125.677 2.31825 129.13 2.31027C137.475 2.29203 145.82 2.28118 154.165 2.27159C156.522 2.26883 158.879 2.26588 161.235 2.26285C175.865 2.2441 190.494 2.2277 205.123 2.21846C208.513 2.21629 211.904 2.21409 215.294 2.21185C216.137 2.21129 216.979 2.21074 217.848 2.21017C231.495 2.20076 245.143 2.17608 258.791 2.14511C272.798 2.11358 286.805 2.09607 300.813 2.09218C308.679 2.08965 316.546 2.08091 324.412 2.05644C331.112 2.03563 337.812 2.02745 344.513 2.03577C347.931 2.03963 351.349 2.03748 354.767 2.01908C357.899 2.00235 361.03 2.00292 364.162 2.017C365.293 2.01908 366.423 2.01493 367.553 2.00376C375.369 1.93132 381.29 2.86712 387.274 8.13865C387.787 8.72111 388.3 9.30356 388.829 9.90367C389.28 10.2869 389.731 10.6701 390.196 11.0649C391.091 12.1332 391.091 12.1332 391.091 15.1058C391.588 15.1058 392.086 15.1058 392.599 15.1058C394.391 19.2688 394.306 23.1169 394.248 27.5538C394.247 28.2512 394.247 28.9486 394.246 29.6672C394.217 34.3133 393.827 38.6697 393.353 43.3461C290.851 43.3461 188.35 43.3461 82.7432 43.3461C82.7432 12.4357 82.7432 12.4357 89.5283 5.44468C91.6016 4.0048 91.6016 4.0048 93.2979 3.21519C95.3794 2.18927 97.0546 2.37493 99.3854 2.3702ZM105.737 16.9637C104.168 19.5416 104.106 21.8733 104.606 24.7669C105.478 26.523 106.227 27.851 107.622 29.2259C109.887 29.4864 111.462 29.6523 113.653 29.2259C116.164 27.0604 117.27 25.7072 117.8 22.4446C117.388 20.1094 116.853 19.0031 115.161 17.3353C114.664 17.3353 114.166 17.3353 113.653 17.3353C113.653 16.8448 113.653 16.3543 113.653 15.849C109.483 15.4907 109.483 15.4907 105.737 16.9637ZM127.177 17.3353C125.161 20.4118 125.249 21.8869 125.716 25.5101C127.03 27.9151 127.579 28.3519 130.239 29.2259C131.998 29.2553 133.758 29.2586 135.517 29.2259C135.517 28.7354 135.517 28.245 135.517 27.7396C136.263 27.4944 137.009 27.2491 137.778 26.9964C139.369 25.036 139.364 23.4086 139.145 21.0047C138.937 19.1991 138.677 18.2697 137.569 16.8041C135.493 15.2771 133.682 15.45 131.167 15.5471C129.272 15.7766 129.272 15.7766 127.177 17.3353ZM146.825 19.5648C146.244 22.7757 146.428 24.1659 148.239 26.9035C150.132 28.7701 150.816 29.1676 153.469 29.4582C156.423 29.1727 157.54 28.2653 159.642 26.2533C160.791 23.9867 160.573 22.0601 160.396 19.5648C159.468 18.0898 159.468 18.0898 158.134 17.3353C157.636 17.3353 157.139 17.3353 156.626 17.3353C156.626 16.8448 156.626 16.3543 156.626 15.849C151.831 15.3763 149.914 16.0746 146.825 19.5648Z" fill="#39383E"/>
<path d="M367.544 1.00391C375.219 0.932761 381.293 1.82233 387.349 6.88477L387.936 7.38867L387.982 7.42969L388.024 7.47754C388.522 8.04238 389.019 8.60754 389.531 9.18848C389.964 9.5561 390.397 9.924 390.843 10.3027L390.907 10.3574L390.962 10.4229C391.392 10.936 391.783 11.3783 391.955 12.1553C392.06 12.6307 392.084 13.2424 392.089 14.1055H393.257L393.518 14.71C395.407 19.0982 395.305 23.1597 395.248 27.5664C395.248 28.2599 395.247 28.9535 395.246 29.668V29.6738C395.216 34.3704 394.822 38.7668 394.348 43.4473L394.256 44.3457H81.7432V43.3457C81.7432 27.9499 81.7392 20.099 82.6074 15.249C83.0504 12.775 83.7273 11.0223 84.7676 9.42383C85.7853 7.86008 87.1332 6.47625 88.8105 4.74805L88.8779 4.67871L88.958 4.62305C89.9802 3.91314 90.5347 3.5274 91.0449 3.22559C91.3059 3.0712 91.5549 2.93885 91.8428 2.79688L92.876 2.30859C95.2073 1.16625 97.1662 1.37458 99.3828 1.37012C100.365 1.36635 101.348 1.36228 102.36 1.3584H105.667V1.35742C106.829 1.35444 107.991 1.35124 109.152 1.34766L118.771 1.33105L129.127 1.31055C137.473 1.2923 145.819 1.28107 154.164 1.27148C156.521 1.26873 158.878 1.26572 161.234 1.2627C175.863 1.24394 190.493 1.22897 205.122 1.21973V1.21875C208.512 1.21657 211.903 1.21415 215.293 1.21191C216.136 1.21136 216.979 1.21053 217.847 1.20996C231.494 1.20056 245.141 1.17648 258.788 1.14551C272.796 1.11398 286.804 1.09568 300.812 1.0918C308.678 1.08926 316.544 1.08111 324.409 1.05664C331.111 1.03583 337.812 1.02781 344.514 1.03613C347.931 1.03999 351.347 1.03792 354.762 1.01953C357.897 1.00279 361.031 1.00251 364.166 1.0166C365.292 1.01867 366.418 1.01502 367.544 1.00391ZM112.653 16.7695C111.153 16.646 110.394 16.6089 109.676 16.71C108.879 16.8222 108.113 17.1058 106.427 17.7676C105.213 19.9099 105.136 21.8753 105.568 24.4541C106.341 26.001 106.99 27.1314 108.085 28.2715C110.055 28.4947 111.413 28.606 113.202 28.291C114.332 27.3049 115.087 26.544 115.629 25.7041C116.171 24.8653 116.534 23.8928 116.783 22.4443C116.593 21.4139 116.383 20.7095 116.069 20.0947C115.781 19.5296 115.38 18.993 114.744 18.335H112.653V16.7695ZM155.626 16.7676C153.776 16.6393 152.515 16.7507 151.438 17.1562C150.254 17.6025 149.177 18.4507 147.761 20.0215C147.516 21.4414 147.462 22.379 147.618 23.2314C147.779 24.1091 148.181 24.9881 149.018 26.2646C149.918 27.1486 150.449 27.594 151.016 27.877C151.573 28.1551 152.237 28.3114 153.473 28.4512C154.795 28.3146 155.645 28.0488 156.384 27.6318C157.138 27.2061 157.831 26.5954 158.819 25.6533C159.71 23.8055 159.585 22.2339 159.416 19.8887C159.025 19.2707 158.878 19.0522 158.715 18.8916C158.567 18.7457 158.394 18.6355 157.867 18.335H155.626V16.7676ZM136.861 17.5293C135.173 16.3378 133.747 16.446 131.256 16.543C130.289 16.6602 129.984 16.708 129.655 16.8555C129.299 17.0151 128.903 17.2986 127.921 18.0283C127.026 19.4192 126.644 20.3832 126.505 21.3584C126.361 22.3719 126.465 23.4688 126.685 25.1943C127.286 26.2807 127.659 26.8014 128.106 27.168C128.563 27.542 129.171 27.8163 130.407 28.2275C131.778 28.2493 133.148 28.2545 134.517 28.2393V27.0156L135.204 26.79C135.855 26.5761 136.507 26.3615 137.173 26.1426C137.752 25.3736 138.031 24.6946 138.156 23.9912C138.3 23.1851 138.258 22.2979 138.148 21.0957H138.147C138.047 20.2253 137.941 19.6398 137.753 19.1143C137.579 18.627 137.317 18.1482 136.861 17.5293Z" stroke="black" stroke-opacity="0.96" stroke-width="2"/>
<path d="M402.399 54.4935C402.437 58.6666 402.464 62.8395 402.482 67.0127C402.49 68.425 402.5 69.8373 402.513 71.2496C402.749 97.053 397.707 119.577 386.567 142.93C385.075 142.93 383.582 142.93 382.044 142.93C382.405 137.484 383.26 132.413 384.624 127.132C386.702 118.599 387.588 110.14 388.264 101.406C388.384 99.9697 388.506 98.5337 388.629 97.0977C389.303 89.0956 389.867 81.0889 390.337 73.0726C384.006 76.5734 377.774 80.2037 371.584 83.9414C362.583 89.3698 353.492 94.6352 344.349 99.8265C343.708 100.191 343.068 100.555 342.408 100.93C340.702 101.898 338.992 102.861 337.281 103.821C336.541 104.24 336.541 104.24 335.786 104.667C332.463 106.515 332.463 106.515 330.778 106.515C330.569 105.612 330.36 104.708 330.145 103.778C329.869 102.6 329.594 101.422 329.318 100.245C329.111 99.35 329.111 99.3501 328.901 98.4375C328.444 95.5537 328.444 95.5537 327.009 93.1381C325.069 93.0616 323.153 93.0336 321.213 93.0452C320.642 93.0466 320.07 93.048 319.482 93.0495C314.178 93.0889 308.921 93.419 303.638 93.8812C303.527 94.8497 303.527 94.8497 303.414 95.8378C301.721 103.83 294.656 110.858 289.496 116.974C287.293 119.586 285.177 122.251 283.094 124.955C278.109 131.39 272.915 137.629 267.45 143.673C266.455 143.428 265.46 143.183 264.435 142.93C263.872 141.4 263.872 141.4 263.681 139.214C264.592 137.324 265.504 135.707 266.649 133.966C266.956 133.482 267.262 132.998 267.578 132.499C268.527 131.013 269.492 129.538 270.466 128.067C270.92 127.38 270.92 127.38 271.382 126.68C273.062 124.152 274.768 121.643 276.497 119.149C275.878 119.583 275.878 119.583 275.245 120.026C271.811 122.415 268.351 124.756 264.842 127.036C258.605 131.089 252.418 135.235 246.747 140.044C242.03 143.996 242.03 143.996 238.755 144.184C233.032 143.199 228.908 140.224 224.254 136.924C222.1 135.418 219.903 133.994 217.692 132.572C214.135 130.253 210.811 127.77 207.55 125.062C205.017 123.144 202.328 121.523 199.599 119.892C199.884 120.345 200.169 120.799 200.462 121.266C201.761 123.331 203.059 125.397 204.358 127.463C204.806 128.176 205.255 128.889 205.717 129.624C206.369 130.662 206.369 130.662 207.035 131.722C207.433 132.356 207.832 132.99 208.243 133.644C208.625 134.256 209.006 134.868 209.399 135.498C209.826 136.139 210.253 136.779 210.693 137.439C211.971 139.782 211.561 141.153 210.907 143.673C207.617 143.314 206.324 142.44 204.216 139.957C203.696 139.35 203.176 138.743 202.641 138.117C200.801 135.869 198.991 133.603 197.21 131.309C195.716 129.409 194.176 127.553 192.625 125.698C172.537 101.552 172.537 101.552 170.95 94.6244C169.517 94.4893 169.517 94.4893 168.055 94.3515C166.774 94.2259 165.493 94.1001 164.212 93.9741C163.586 93.9157 162.959 93.8572 162.314 93.797C158.059 93.3727 154 92.6364 149.841 91.6517C154.118 86.9292 159.586 85.0622 165.464 82.905C167.63 82.1034 169.759 81.2473 171.893 80.3649C174.732 79.2345 177.495 78.5008 180.496 77.9242C182.194 77.546 183.766 77.0463 185.404 76.4691C189.006 75.2655 192.617 74.4758 196.347 73.7693C196.948 73.6501 197.548 73.5308 198.166 73.4079C200.148 73.024 202.133 72.6735 204.122 72.3295C204.864 72.1923 205.607 72.0551 206.372 71.9138C213.976 70.6543 221.488 70.6417 229.181 70.6902C231.387 70.7037 233.593 70.7054 235.799 70.7052C253.439 70.7359 270.42 71.576 287.518 76.115C289.359 76.6022 291.204 77.0735 293.049 77.5432C303.639 80.2846 313.399 83.8752 322.927 89.2568C326.802 90.6247 330.046 90.2892 333.866 88.811C335.513 88.0185 337.102 87.1586 338.694 86.2638C339.947 85.5864 341.201 84.91 342.455 84.2346C343.121 83.8721 343.788 83.5097 344.474 83.1362C348.34 81.0631 352.263 79.0989 356.176 77.1136C362.065 74.1088 367.914 71.0533 373.66 67.789C377.74 65.4763 381.868 63.3708 386.202 61.5623C389.653 60.0865 392.896 58.3051 396.177 56.498C399.897 54.4935 399.897 54.4935 402.399 54.4935Z" fill="#37373D"/>
<path d="M403.391 53.4935L403.399 54.4847C403.437 58.659 403.465 62.8331 403.482 67.0072L403.513 71.2406C403.75 97.1977 398.674 119.872 387.47 143.361L387.198 143.93H380.976L381.046 142.864C381.411 137.351 382.277 132.218 383.655 126.882C385.711 118.434 386.592 110.045 387.267 101.328L387.268 101.322C387.388 99.8852 387.51 98.4484 387.633 97.0121C388.255 89.625 388.782 82.2333 389.229 74.8334C383.457 78.0529 377.762 81.379 372.101 84.7972H372.1C364.215 89.5523 356.264 94.1819 348.271 98.7445L344.843 100.696C344.202 101.06 343.562 101.424 342.902 101.799L342.901 101.8C341.194 102.769 339.484 103.731 337.772 104.691C337.033 105.109 337.034 105.111 336.279 105.537L336.272 105.54C334.651 106.442 333.732 106.957 333.014 107.222C332.2 107.522 331.612 107.515 330.778 107.515H329.983L329.804 106.741C329.595 105.837 329.386 104.934 329.171 104.003V104.002C328.895 102.826 328.619 101.649 328.344 100.473L328.343 100.469C328.137 99.575 328.137 99.5746 327.927 98.6625L327.919 98.6283L327.913 98.5941C327.679 97.1153 327.578 96.5028 327.38 95.9486C327.21 95.4734 326.964 95.0285 326.427 94.1185C324.688 94.058 322.964 94.0349 321.219 94.0453H321.216C320.646 94.0467 320.076 94.0467 319.488 94.0482L319.489 94.0492C314.492 94.0863 309.531 94.3842 304.537 94.808C304.502 95.1166 304.476 95.3526 304.407 95.9515L304.402 95.9984L304.393 96.0453C303.502 100.249 301.213 104.141 298.557 107.707C295.911 111.259 292.797 114.614 290.261 117.62C288.071 120.216 285.963 122.868 283.886 125.565L283.885 125.567C278.886 132.02 273.675 138.279 268.192 144.344L267.791 144.787L267.211 144.644C266.216 144.399 265.221 144.153 264.195 143.901L263.68 143.774L263.496 143.275C263.222 142.529 263.051 142.071 262.938 141.517C262.83 140.983 262.778 140.368 262.685 139.301L262.66 139.028L262.779 138.781C263.709 136.851 264.643 135.195 265.813 133.416C266.117 132.937 266.421 132.458 266.733 131.964L266.735 131.961C267.688 130.468 268.657 128.989 269.632 127.515L270.548 126.128L270.55 126.126C271.232 125.099 271.919 124.075 272.61 123.054C270.221 124.686 267.817 126.296 265.387 127.874C259.153 131.926 253.012 136.042 247.394 140.807L247.39 140.811C245.08 142.746 243.793 143.832 242.67 144.413C241.451 145.045 240.414 145.091 238.812 145.183L238.698 145.189L238.585 145.169C232.606 144.14 228.304 141.021 223.681 137.743V137.744C221.545 136.25 219.362 134.836 217.151 133.413L217.146 133.41C213.564 131.073 210.218 128.575 206.939 125.855C205.574 124.821 204.158 123.874 202.707 122.958C203.539 124.283 204.372 125.607 205.204 126.931C205.653 127.644 206.101 128.357 206.563 129.092L207.882 131.19H207.881L209.09 133.112L209.092 133.115C209.472 133.724 209.852 134.334 210.243 134.961L211.524 136.884L211.55 136.92L211.57 136.959C212.279 138.259 212.554 139.361 212.524 140.515C212.496 141.607 212.191 142.708 211.875 143.924L211.658 144.761L210.799 144.667C209.083 144.48 207.785 144.148 206.62 143.479C205.468 142.816 204.526 141.868 203.454 140.605V140.604C202.935 139.998 202.416 139.392 201.881 138.767L201.874 138.759L201.867 138.75C200.023 136.496 198.206 134.223 196.42 131.922V131.921C194.937 130.036 193.406 128.191 191.857 126.339L191.856 126.337C181.831 114.286 176.77 108.205 174.029 104.276C172.648 102.295 171.827 100.821 171.252 99.3754C170.762 98.1419 170.463 96.9522 170.139 95.5511C169.364 95.4781 169.128 95.4569 167.962 95.347H167.958C166.678 95.2216 165.399 95.095 164.119 94.9691C163.493 94.9107 162.867 94.8525 162.222 94.7924H162.215C157.907 94.3628 153.804 93.6172 149.61 92.6244L147.963 92.2347L149.1 90.9808C153.572 86.0428 159.294 84.1037 165.119 81.9662C167.268 81.1709 169.384 80.3206 171.511 79.4408L171.522 79.4359C174.434 78.2766 177.261 77.527 180.308 76.9418C181.939 76.5766 183.461 76.0932 185.071 75.5258L185.079 75.5228L185.087 75.5209C188.753 74.2959 192.415 73.4958 196.161 72.7865C196.758 72.6678 197.355 72.5494 197.971 72.4271L197.976 72.4261C199.964 72.041 201.953 71.6897 203.94 71.3461L206.19 70.9301L206.199 70.9291L206.208 70.9271C213.908 69.6519 221.5 69.6414 229.188 69.6898H229.187C231.389 69.7033 233.593 69.7056 235.799 69.7054H235.801C253.464 69.7361 270.548 70.5756 287.772 75.1478H287.773C288.691 75.3908 289.611 75.6305 290.531 75.8676L293.296 76.5746L293.3 76.5756C303.922 79.3253 313.741 82.9316 323.335 88.3392C326.889 89.5753 329.856 89.2829 333.468 87.891C335.075 87.1166 336.631 86.2756 338.204 85.392L338.212 85.3881L338.219 85.3842C339.472 84.7065 340.726 84.0295 341.98 83.3539C342.645 82.9921 343.311 82.6309 343.996 82.2582L344.002 82.2552C347.88 80.1754 351.817 78.2037 355.723 76.222C361.607 73.22 367.439 70.1723 373.166 66.9193H373.167C377.272 64.5923 381.437 62.4668 385.817 60.639C389.212 59.1866 392.41 57.4313 395.694 55.6224L395.702 55.6176C397.518 54.639 398.55 54.0784 399.438 53.7924C400.391 53.4853 401.178 53.4935 402.399 53.4935H403.391Z" stroke="black" stroke-opacity="0.96" stroke-width="2"/>
<path d="M425.771 106.515C431.986 106.256 437.308 106.442 443.11 108.745C444.078 109.124 444.078 109.124 445.066 109.511C450.68 111.978 454.735 115.545 457.34 121.1C458.655 124.988 459.036 128.647 459.061 132.732C459.069 133.64 459.077 134.547 459.085 135.483C459.09 136.453 459.096 137.424 459.102 138.425C459.111 139.441 459.122 140.457 459.133 141.473C459.179 145.77 459.22 150.068 459.245 154.366C459.261 157.002 459.288 159.638 459.321 162.274C459.337 163.758 459.341 165.243 459.345 166.727C459.357 167.635 459.37 168.543 459.382 169.478C459.389 170.273 459.395 171.068 459.401 171.887C459.844 175.271 460.924 177.815 463.687 179.917C465.935 180.924 468.082 181.538 470.487 182.086C471.902 182.407 473.317 182.729 474.775 183.061C474.775 188.456 474.775 193.852 474.775 199.411C473.375 199.594 471.976 199.778 470.534 199.968C466.619 200.61 464.193 201.311 461.204 203.869C459.453 206.46 459.508 207.474 459.504 210.532C459.496 211.902 459.496 211.902 459.488 213.299C459.489 213.787 459.489 214.275 459.49 214.778C459.49 216.313 459.481 217.848 459.468 219.383C459.433 223.748 459.414 228.112 459.409 232.477C459.405 235.149 459.387 237.821 459.36 240.493C459.349 241.994 459.355 243.494 459.36 244.995C459.271 253.281 457.375 260.219 451.403 266.295C449.5 267.79 447.54 268.928 445.372 270.011C444.517 270.456 443.662 270.9 442.781 271.358C437.763 273.123 431.765 272.537 426.525 272.241C425.771 271.497 425.771 271.497 425.685 269.98C425.689 269.331 425.693 268.681 425.697 268.011C425.699 267.309 425.702 266.607 425.704 265.885C425.711 265.146 425.717 264.408 425.724 263.648C425.727 262.907 425.73 262.166 425.734 261.402C425.743 259.565 425.755 257.728 425.771 255.891C426.552 255.889 427.333 255.887 428.138 255.885C429.171 255.857 430.204 255.828 431.236 255.798C431.751 255.8 432.265 255.802 432.794 255.804C434.536 255.781 434.536 255.781 437.079 255.148C440.315 251.454 440.936 248.322 440.968 243.585C440.979 242.342 440.979 242.342 440.991 241.073C440.997 240.181 441.002 239.288 441.008 238.369C441.029 236.475 441.051 234.581 441.073 232.687C441.104 229.705 441.132 226.722 441.151 223.739C441.172 220.859 441.207 217.979 441.243 215.098C441.246 214.212 441.248 213.325 441.251 212.412C441.351 205.666 442.342 200.474 447.06 195.355C449.289 193.43 451.707 192.388 454.419 191.236C454.045 190.983 453.671 190.73 453.285 190.469C448.584 187.163 443.844 183.252 441.603 177.859C441.408 175.759 441.408 175.759 441.398 173.306C441.391 172.386 441.383 171.465 441.375 170.517C441.374 169.782 441.374 169.782 441.373 169.033C441.37 167.492 441.357 165.951 441.342 164.411C441.3 160.031 441.277 155.652 441.259 151.272C441.247 148.589 441.224 145.907 441.195 143.224C441.186 142.206 441.182 141.188 441.181 140.169C441.253 132.683 441.253 132.683 438.587 125.837C435.646 123.119 432.129 123.234 428.28 123.021C426.525 122.865 426.525 122.865 425.771 122.121C425.705 120.961 425.69 119.797 425.697 118.635C425.699 117.933 425.702 117.232 425.704 116.509C425.711 115.77 425.717 115.032 425.724 114.272C425.727 113.531 425.73 112.79 425.734 112.026C425.743 110.189 425.755 108.352 425.771 106.515Z" fill="#A28BDA"/>
<path d="M475.775 200.287L474.905 200.402C473.509 200.585 472.113 200.768 470.675 200.957C466.906 201.576 464.697 202.228 461.958 204.543C461.174 205.718 460.839 206.473 460.676 207.235C460.498 208.066 460.505 208.958 460.503 210.533V210.537C460.496 211.907 460.496 211.908 460.488 213.305L460.49 214.778L460.484 217.086C460.48 217.855 460.474 218.624 460.467 219.392C460.432 223.754 460.415 228.115 460.41 232.478C460.406 235.154 460.387 237.829 460.36 240.503C460.349 241.996 460.355 243.491 460.361 244.991V245.006C460.27 253.461 458.323 260.681 452.117 266.996L452.072 267.042L452.021 267.081C450.051 268.629 448.031 269.799 445.833 270.898C444.977 271.342 444.123 271.787 443.242 272.245L443.179 272.278L443.113 272.301C437.86 274.149 431.613 273.53 426.468 273.239L426.091 273.218L425.823 272.952C425.494 272.628 425.115 272.282 424.917 271.749C424.745 271.289 424.725 270.714 424.687 270.036L424.685 270.005V269.974C424.689 269.324 424.693 268.674 424.697 268.005C424.699 267.304 424.702 266.603 424.705 265.881V265.876C424.711 265.138 424.717 264.399 424.723 263.639C424.727 262.899 424.73 262.16 424.734 261.398L424.771 255.883L424.779 254.894L425.768 254.891L428.136 254.885C429.16 254.857 430.184 254.828 431.208 254.798H431.24C431.749 254.8 432.26 254.801 432.785 254.803C433.668 254.791 434.031 254.786 434.485 254.716C434.923 254.649 435.447 254.521 436.529 254.252C437.944 252.587 438.776 251.07 439.269 249.464C439.79 247.766 439.952 245.912 439.967 243.577V243.575C439.979 242.332 439.979 242.332 439.991 241.064C439.996 240.172 440.003 239.281 440.008 238.363V238.358C440.029 236.464 440.051 234.57 440.073 232.676C440.104 229.694 440.133 226.713 440.152 223.733V223.732C440.173 220.848 440.207 217.966 440.244 215.085C440.246 214.202 440.248 213.318 440.25 212.408V212.397C440.353 205.536 441.368 200.055 446.325 194.677L446.363 194.635L446.406 194.598C448.277 192.983 450.27 191.961 452.358 191.036C447.752 187.768 442.98 183.78 440.679 178.242L440.621 178.102L440.607 177.951C440.409 175.819 440.408 175.788 440.398 173.315L440.375 170.526V170.519L440.373 169.034C440.371 168.266 440.367 167.498 440.362 166.729L440.342 164.42C440.301 160.038 440.277 155.657 440.258 151.277C440.246 148.597 440.224 145.916 440.195 143.235V143.233C440.186 142.212 440.181 141.19 440.181 140.169V140.159C440.217 136.379 440.23 134.618 439.926 132.941C439.63 131.302 439.027 129.727 437.74 126.421C435.159 124.157 432.132 124.236 428.224 124.02L428.191 124.018C427.385 123.946 426.779 123.9 426.312 123.733C425.753 123.532 425.409 123.169 425.069 122.833L424.794 122.563L424.772 122.178C424.705 120.989 424.69 119.803 424.697 118.629C424.699 117.928 424.702 117.227 424.705 116.505V116.5C424.711 115.762 424.717 115.023 424.723 114.263C424.727 113.523 424.73 112.784 424.734 112.022L424.771 106.506L424.779 105.556L425.729 105.516C431.988 105.255 437.479 105.434 443.479 107.815H443.478L445.431 108.58L445.45 108.587L445.468 108.595C451.089 111.065 455.255 114.639 457.986 120.137L458.246 120.675L458.27 120.726L458.288 120.78C459.648 124.802 460.035 128.576 460.061 132.723C460.069 133.631 460.077 134.539 460.084 135.474V135.477C460.09 136.446 460.095 137.416 460.101 138.415L460.132 141.462C460.179 145.76 460.219 150.06 460.245 154.36C460.26 156.993 460.287 159.627 460.321 162.261V162.263C460.337 163.748 460.34 165.233 460.344 166.713L460.382 169.464V169.47C460.388 170.244 460.394 171.018 460.4 171.815C460.819 174.95 461.794 177.181 464.204 179.05C466.33 179.992 468.377 180.58 470.708 181.111C472.123 181.432 473.539 181.755 474.997 182.086L475.775 182.263V200.287Z" stroke="black" stroke-opacity="0.96" stroke-width="2"/>
<path d="M40.2741 107.186C40.9471 107.188 41.6201 107.19 42.3135 107.193C43.0137 107.199 43.7139 107.205 44.4353 107.212C45.4987 107.217 45.4987 107.217 46.5836 107.222C48.3335 107.231 50.0832 107.243 51.833 107.258C51.8548 109.72 51.8683 112.182 51.8801 114.643C51.8864 115.346 51.8928 116.049 51.8993 116.773C51.9017 117.441 51.9041 118.109 51.9066 118.798C51.9106 119.416 51.9145 120.035 51.9186 120.673C51.833 122.121 51.833 122.121 51.0791 122.865C49.7769 122.963 48.4728 123.036 47.1682 123.097C43.2532 123.413 41.2132 124.045 38.2627 126.58C36.4775 129.22 36.5694 130.33 36.5743 133.459C36.5715 134.42 36.5687 135.38 36.5658 136.369C36.5675 136.883 36.5693 137.396 36.5711 137.925C36.5753 139.538 36.5684 141.15 36.5581 142.763C36.5302 147.349 36.5161 151.935 36.5246 156.521C36.5291 159.328 36.5151 162.135 36.49 164.942C36.4841 166.006 36.485 167.071 36.4931 168.136C36.545 175.263 36.044 180.663 30.8706 185.934C27.8894 188.659 25.0937 190.493 20.9229 190.493C20.9229 190.983 20.9229 191.473 20.9229 191.979C21.4671 191.926 22.0113 191.873 22.572 191.819C25.2751 192.023 26.3592 192.872 28.4619 194.533C29.0839 195.008 29.7059 195.482 30.3467 195.97C35.8581 201.683 36.5397 206.979 36.4545 214.674C36.4637 216.128 36.473 217.582 36.4829 219.036C36.4923 221.055 36.4851 223.075 36.4775 225.094C36.4653 228.635 36.4674 232.176 36.4877 235.716C36.4968 237.596 36.4948 239.476 36.4804 241.356C36.4954 246.012 36.5995 249.6 39.0166 253.661C42.8363 256.485 47.218 256.357 51.833 256.634C51.833 261.784 51.833 266.934 51.833 272.241C49.5939 272.287 47.3548 272.333 45.0479 272.38C44.0085 272.41 44.0085 272.41 42.9481 272.441C36.6215 272.504 32.1771 271.099 27.5195 266.76C26.9092 266.202 26.2989 265.645 25.6701 265.07C21.2236 260.583 19.2369 256.925 19.2106 250.563C19.2029 249.672 19.1952 248.782 19.1873 247.864C19.1857 246.912 19.1841 245.96 19.1824 244.979C19.174 243.981 19.1647 242.984 19.1544 241.986C19.1128 237.768 19.0895 233.549 19.071 229.331C19.059 226.743 19.0362 224.155 19.0071 221.567C18.9942 220.112 18.9938 218.657 18.9937 217.202C18.9403 212.468 18.8547 208.744 16.3994 204.613C13.0361 201.637 8.96686 200.577 4.72271 199.286C2.82911 198.667 2.82911 198.667 2.0752 197.924C2.00984 196.818 1.99451 195.708 2.00158 194.6C2.00401 193.932 2.00644 193.264 2.00894 192.575C2.01526 191.873 2.02157 191.17 2.02808 190.446C2.03148 189.741 2.03489 189.035 2.03839 188.308C2.04731 186.559 2.05973 184.81 2.0752 183.061C2.89834 182.829 3.72149 182.597 4.56957 182.358C5.48795 182.1 6.40633 181.841 7.35255 181.575C8.11446 181.36 8.87638 181.145 9.66138 180.924C13.1587 179.604 15.6635 178.308 17.6453 175.096C19.2752 171.067 18.9679 166.733 18.9477 162.461C18.9408 160.858 18.9486 159.255 18.9602 157.651C18.9903 153.095 18.9914 148.539 18.9897 143.983C18.9896 141.187 19.0042 138.391 19.0269 135.595C19.035 134.024 19.0259 132.454 19.0165 130.883C19.0675 124.379 19.7249 120.348 23.8325 115.143C28.502 110.616 33.5117 107.143 40.2741 107.186Z" fill="#A48DDC"/>
<path d="M52.833 273.22L51.8535 273.241C49.617 273.287 47.3804 273.331 45.0762 273.379C44.0378 273.409 44.0374 273.41 42.9775 273.441H42.958C39.7194 273.473 36.9013 273.13 34.2725 272.193C31.6379 271.254 29.2476 269.737 26.8379 267.492V267.491C26.2301 266.936 25.6223 266.38 24.9961 265.808L24.9775 265.792L24.96 265.774C22.6974 263.491 21.0005 261.359 19.876 258.941C18.7469 256.513 18.225 253.86 18.2109 250.571L18.1875 247.873V247.866C18.1859 246.916 18.1843 245.966 18.1826 244.987L18.1543 241.997V241.996C18.1127 237.775 18.0898 233.554 18.0713 229.336L18.0459 225.457C18.0351 224.164 18.0214 222.871 18.0068 221.578V221.576C17.9939 220.119 17.9943 218.663 17.9941 217.213L17.9678 215.491C17.883 211.648 17.5631 208.597 15.6182 205.258C12.4761 202.537 8.69331 201.54 4.43164 200.243L4.42188 200.24L4.41211 200.236C3.5083 199.941 2.93553 199.757 2.51465 199.541C2.02696 199.29 1.73507 198.993 1.37305 198.636L1.09961 198.367L1.07715 197.983C1.01006 196.847 0.994802 195.714 1.00195 194.593C1.00438 193.926 1.00629 193.259 1.00879 192.572V192.566C1.0151 191.864 1.02181 191.161 1.02832 190.437C1.03171 189.733 1.03459 189.029 1.03809 188.303C1.04701 186.553 1.05972 184.802 1.0752 183.052L1.08203 182.301L1.80371 182.098C2.62688 181.866 3.45073 181.635 4.29883 181.396C5.21701 181.138 6.13506 180.878 7.08105 180.612C7.82959 180.401 8.57822 180.189 9.34863 179.972C12.7282 178.694 14.9579 177.506 16.75 174.639C18.2498 170.864 17.9678 166.814 17.9473 162.466C17.9403 160.857 17.9483 159.249 17.96 157.644L17.9775 154.23C17.9904 150.816 17.9905 147.401 17.9893 143.984V143.983C17.9892 141.184 18.0046 138.385 18.0273 135.588C18.0354 134.024 18.0261 132.46 18.0166 130.889V130.876C18.0423 127.602 18.2192 124.861 18.9395 122.259C19.6651 119.638 20.9266 117.212 23.0479 114.523L23.0889 114.471L23.1367 114.424C27.8676 109.838 33.1197 106.143 40.2764 106.186L40.2773 106.185C40.9503 106.188 41.624 106.191 42.3174 106.193H42.3223C43.0225 106.199 43.7229 106.205 44.4443 106.212L44.4434 106.213C45.5033 106.218 45.5046 106.217 46.5879 106.222H46.5889L51.8418 106.258L52.8242 106.267L52.833 107.25C52.8548 109.712 52.868 112.174 52.8799 114.634L52.8994 116.763V116.769C52.9018 117.436 52.9038 118.103 52.9062 118.791C52.9102 119.409 52.9149 120.029 52.9189 120.667V120.699L52.917 120.732C52.879 121.376 52.8581 121.936 52.6836 122.391C52.4849 122.91 52.1082 123.254 51.7812 123.577L51.5205 123.835L51.1543 123.862C49.8494 123.961 48.5449 124.033 47.2441 124.093C45.3204 124.249 43.9426 124.477 42.7061 124.942C41.5096 125.392 40.3879 126.087 39.0176 127.252C38.2222 128.445 37.8872 129.234 37.7275 130.033C37.5527 130.908 37.5717 131.842 37.5742 133.458V133.463C37.5714 134.423 37.5683 135.383 37.5654 136.372L37.5713 137.922V137.922C37.5755 139.54 37.5679 141.156 37.5576 142.77C37.5297 147.354 37.5159 151.937 37.5244 156.519C37.5289 159.331 37.5154 162.141 37.4902 164.951C37.4873 165.48 37.4858 166.009 37.4863 166.538L37.4932 168.129L37.4951 169.459C37.4639 176.029 36.7089 181.412 31.584 186.634L31.5654 186.654L31.5449 186.672C29.3223 188.703 27.112 190.329 24.3232 191.065C25.0097 191.221 25.6152 191.441 26.1973 191.739C27.1694 192.236 28.0429 192.928 29.0684 193.738L30.9531 195.175L31.0137 195.221L31.0664 195.276C33.9254 198.24 35.5642 201.134 36.4619 204.307C37.3516 207.452 37.4969 210.821 37.4541 214.685L37.4824 219.029V219.031C37.4918 221.055 37.4851 223.079 37.4775 225.098C37.4714 226.867 37.4692 228.635 37.4707 230.404L37.4873 235.711V235.712C37.4964 237.595 37.495 239.48 37.4805 241.364C37.4954 245.936 37.6092 249.241 39.7725 252.972C43.2563 255.457 47.2089 255.355 51.8926 255.636L52.833 255.692V273.22Z" stroke="black" stroke-opacity="0.96" stroke-width="2"/>
<path d="M213.923 213.531C216.209 214.616 218.358 215.844 220.52 217.154C227.675 221.406 234.514 225.398 243.116 223.476C248.643 221.854 253.104 219.33 257.865 216.213C259.911 215.017 259.911 215.017 262.173 215.017C263.023 217.989 263.87 220.962 264.717 223.935C264.957 224.771 265.196 225.608 265.442 226.469C267.438 233.479 267.438 233.479 268.275 236.842C269.179 240.414 270.277 243.922 271.367 247.443C271.955 249.869 272.089 251.923 271.974 254.405C265.213 256.79 258.758 258.629 251.618 259.607C251.031 259.731 250.444 259.856 249.839 259.984C237.061 262.334 223.063 259.982 210.907 255.891C209.687 255.593 208.462 255.312 207.232 255.055C206.643 254.93 206.054 254.806 205.447 254.678C204.791 254.542 204.791 254.542 204.122 254.405C203.318 251.983 203.437 250.452 204.099 248.004C204.278 247.329 204.458 246.654 204.643 245.96C204.844 245.236 205.046 244.513 205.253 243.768C205.557 242.646 205.557 242.646 205.868 241.501C207.593 235.222 209.485 228.994 211.455 222.784C211.668 222.112 211.881 221.44 212.1 220.747C212.288 220.16 212.477 219.572 212.671 218.966C213.192 217.167 213.575 215.369 213.923 213.531Z" fill="#37363C"/>
<path d="M214.352 212.627C216.68 213.732 218.859 214.978 221.031 216.294L222.374 217.089C229.046 221.018 235.232 224.201 242.87 222.505C248.243 220.923 252.599 218.465 257.317 215.376L257.338 215.363L257.36 215.35C258.336 214.78 258.977 214.395 259.67 214.203C260.37 214.008 261.096 214.017 262.173 214.017H262.927L263.134 214.743C263.984 217.715 264.832 220.688 265.679 223.661L266.404 226.195V226.196C268.4 233.205 268.405 233.221 269.245 236.596L269.589 237.922C270.178 240.127 270.832 242.314 271.506 244.508L272.323 247.148L272.332 247.177L272.339 247.207C272.954 249.743 273.091 251.894 272.973 254.451L272.942 255.123L272.306 255.348C265.519 257.743 259.005 259.601 251.791 260.592C251.215 260.714 250.639 260.837 250.046 260.962L250.033 260.965L250.019 260.967C237.029 263.356 222.867 260.965 210.631 256.853C209.433 256.561 208.232 256.285 207.028 256.034H207.025C206.436 255.909 205.847 255.784 205.241 255.656V255.655C204.59 255.521 204.588 255.522 203.92 255.384L203.355 255.268L203.173 254.72C202.745 253.43 202.547 252.329 202.561 251.202C202.575 250.086 202.794 248.997 203.133 247.743C203.313 247.069 203.492 246.396 203.676 245.703L203.679 245.691C203.88 244.968 204.082 244.245 204.29 243.5C204.592 242.384 204.593 242.382 204.903 241.24L204.904 241.237C206.634 234.94 208.529 228.698 210.501 222.482C210.714 221.81 210.928 221.138 211.147 220.446L211.148 220.443C211.336 219.855 211.524 219.266 211.718 218.661C212.223 216.915 212.597 215.161 212.941 213.345L213.181 212.072L214.352 212.627Z" stroke="black" stroke-opacity="0.96" stroke-width="2"/>
<path d="M74.4501 52.264C77.2116 53.3308 79.7834 54.526 82.3868 55.9305C83.1705 56.3515 83.9543 56.7726 84.7619 57.2064C85.5729 57.6446 86.3839 58.0829 87.2194 58.5345C88.828 59.4012 90.4369 60.2673 92.0462 61.1327C92.7565 61.5163 93.4669 61.8999 94.1988 62.2951C95.695 63.085 97.205 63.8497 98.724 64.5961C100.837 65.641 100.837 65.641 102.722 66.8022C104.797 67.9784 106.843 68.6754 109.13 69.3568C109.13 69.8473 109.13 70.3378 109.13 70.8431C109.793 71.0461 110.456 71.2491 111.14 71.4582C113.479 72.2689 115.51 73.2099 117.682 74.379C118.43 74.78 119.178 75.1809 119.949 75.5941C121.124 76.2313 121.124 76.2313 122.323 76.8813C123.131 77.3153 123.939 77.7492 124.771 78.1962C129.11 80.5347 133.415 82.9208 137.684 85.3813C141.61 87.6246 145.559 89.4302 149.841 90.9086C149.649 91.4211 149.458 91.9336 149.261 92.4617C147.62 96.8759 146.041 101.302 144.563 105.772C140.222 104.635 136.836 102.443 133.113 100.059C132.474 99.6552 131.835 99.2516 131.176 98.8357C129.353 97.6839 127.534 96.5266 125.716 95.3676C120.839 92.2779 115.929 89.2615 110.951 86.3327C106.246 83.5622 101.561 80.7581 96.8788 77.9496C95.7334 77.2634 95.7334 77.2634 94.5649 76.5633C93.8474 76.1327 93.1299 75.7022 92.3907 75.2586C91.7481 74.8731 91.1055 74.4875 90.4434 74.0903C89.1167 73.2813 87.8107 72.4393 86.5126 71.5863C87.3986 105.374 87.3986 105.374 93.3066 138.564C94.0517 141.444 94.0517 141.444 94.0517 142.93C92.559 142.93 91.0662 142.93 89.5283 142.93C83.2878 130.315 78.5597 119.011 76.9333 104.971C76.7291 103.384 76.7291 103.384 75.9579 101.313C75.7296 99.2085 75.5753 97.1036 75.4161 94.9931C75.3137 93.1411 75.3137 93.1411 74.4501 91.6517C74.3819 90.3917 74.3615 89.1291 74.3645 87.8673C74.3646 87.0789 74.3647 86.2904 74.3647 85.4781C74.3686 84.6242 74.3725 83.7703 74.3765 82.8905C74.3776 82.0184 74.3786 81.1462 74.3797 80.2477C74.384 77.4534 74.3934 74.6592 74.403 71.865C74.4068 69.9742 74.4102 68.0834 74.4133 66.1926C74.4216 61.5497 74.4343 56.9069 74.4501 52.264Z" fill="#37373D"/>
<path d="M110.13 70.1029L111.433 70.5023L111.45 70.5072L111.467 70.5131C113.867 71.345 115.948 72.3098 118.154 73.4974L120.422 74.7123L120.426 74.7152C121.6 75.3517 121.601 75.3524 122.796 76.0004H122.797L125.244 77.3148L125.245 77.3158C129.59 79.6574 133.902 82.0477 138.18 84.5131L138.907 84.9232C142.542 86.9477 146.21 88.597 150.167 89.9633L151.137 90.2982L150.777 91.2582C150.586 91.77 150.394 92.2817 150.197 92.809L150.198 92.8099C148.561 97.2161 146.986 101.63 145.513 106.085L145.218 106.977L144.31 106.74C139.793 105.557 136.28 103.274 132.579 100.904C131.94 100.5 131.301 100.097 130.643 99.681C128.818 98.5283 126.997 97.3704 125.179 96.2113V96.2103C120.311 93.1261 115.41 90.1166 110.444 87.1947C105.735 84.4219 101.047 81.6156 96.3643 78.807V78.806C95.2199 78.1204 95.219 78.1211 94.0508 77.4213L94.0498 77.4203C93.3325 76.9898 92.615 76.5591 91.876 76.1156V76.1166C91.2334 75.7311 90.5908 75.3448 89.9287 74.9476L89.9229 74.9437C89.1282 74.4592 88.3424 73.9629 87.5625 73.4613C87.9738 89.1101 88.2091 97.1903 89.0215 105.199C89.8655 113.519 91.3318 121.769 94.2842 138.355C94.644 139.745 94.8432 140.508 94.9443 141.101C95.0537 141.742 95.0518 142.194 95.0518 142.93V143.93H88.9072L88.6318 143.373C82.3753 130.726 77.5859 119.299 75.9395 105.086V105.085C75.8364 104.284 75.7933 103.959 75.6924 103.58C75.5859 103.181 75.414 102.718 75.0205 101.661L74.9775 101.545L74.9639 101.42C74.7334 99.2965 74.5778 97.174 74.4189 95.0687L74.418 95.058V95.0482C74.3641 94.0743 74.3395 93.7468 74.2578 93.4642C74.1788 93.191 74.0396 92.9378 73.585 92.1537L73.4648 91.9457L73.4512 91.7054C73.3816 90.4209 73.3612 89.1381 73.3643 87.8646V85.473C73.3681 84.6193 73.3729 83.7657 73.377 82.8861C73.378 82.015 73.3788 81.1439 73.3799 80.2465L73.4033 71.8617C73.4071 69.9714 73.41 68.081 73.4131 66.1908L73.4502 52.2611L73.4551 50.808L74.8105 51.3314C77.6124 52.4138 80.2218 53.6263 82.8594 55.0492H82.8604L85.2354 56.3256L85.2373 56.3265C86.0478 56.7645 86.8584 57.2024 87.6934 57.6537C89.3017 58.5203 90.9105 59.3871 92.5195 60.2523H92.5215C93.229 60.6344 93.9363 61.017 94.665 61.4105C95.7797 61.999 96.9035 62.574 98.0332 63.1381L99.165 63.6986L99.167 63.6996C101.298 64.7533 101.333 64.7718 103.225 65.9369C105.196 67.0529 107.152 67.7244 109.415 68.3988L110.13 68.6117V70.1029Z" stroke="black" stroke-opacity="0.96" stroke-width="2"/>
<path d="M130.239 159.28C135.218 159.684 139.643 160.597 144.375 162.159C145.049 162.381 145.724 162.602 146.419 162.831C154.202 165.514 161.635 169.194 168.688 173.4C169.244 173.717 169.8 174.035 170.373 174.362C171.704 175.629 171.704 175.629 172.08 177.574C172.082 178.721 172.082 178.721 172.084 179.891C172.105 181.153 172.105 181.153 172.127 182.44C172.127 183.319 172.128 184.199 172.128 185.105C172.065 192.931 172.065 192.931 174.72 200.154C176.543 198.356 176.6 197.374 177.029 194.905C177.662 191.308 177.662 191.308 178.489 190.493C178.666 188.994 178.801 187.491 178.913 185.987C178.976 185.166 179.04 184.345 179.105 183.499C179.15 182.864 179.196 182.229 179.243 181.575C180.486 182.621 181.727 183.668 182.963 184.721C183.981 185.579 185.012 186.424 186.055 187.253C190.558 190.914 195.48 195.866 196.068 201.832C196.159 203.254 196.159 203.254 196.253 204.706C196.316 205.658 196.38 206.61 196.445 207.591C196.49 208.325 196.536 209.059 196.583 209.815C194.703 208.92 193.054 207.991 191.306 206.842C188.953 206.673 188.953 206.673 186.264 206.775C185.244 206.791 184.224 206.806 183.204 206.82C181.61 206.852 180.015 206.888 178.421 206.929C167.685 207.182 158.598 205.863 150.309 198.577C142.493 190.638 139.124 181.844 139.239 170.892C139.242 170.274 139.246 169.656 139.249 169.019C139.258 167.507 139.272 165.994 139.286 164.482C136.301 163.01 133.315 161.539 130.239 160.023C130.239 159.778 130.239 159.532 130.239 159.28Z" fill="#BEE5F3"/>
<path d="M130.32 158.283C135.379 158.693 139.882 159.623 144.687 161.209C145.361 161.431 146.036 161.652 146.73 161.88L146.737 161.883L146.744 161.885C154.601 164.593 162.091 168.303 169.184 172.532H169.185L170.869 173.494L170.974 173.554L171.062 173.638C171.681 174.228 172.161 174.667 172.468 175.245C172.693 175.669 172.816 176.15 172.938 176.746L173.062 177.384L173.08 177.477V177.572C173.082 178.714 173.082 178.719 173.084 179.874L173.127 182.423V182.439C173.127 183.318 173.127 184.198 173.128 185.104V185.113C173.096 189.061 173.084 190.913 173.39 192.686C173.646 194.173 174.128 195.615 175.069 198.198C175.241 197.931 175.365 197.682 175.462 197.426C175.714 196.762 175.818 196.028 176.043 194.734L176.044 194.732C176.352 192.98 176.525 191.981 176.737 191.341C176.855 190.984 176.997 190.697 177.197 190.426C177.302 190.285 177.417 190.155 177.533 190.035C177.689 188.667 177.813 187.292 177.916 185.912V185.911C177.979 185.09 178.042 184.268 178.107 183.422C178.153 182.789 178.199 182.156 178.246 181.503L178.387 179.546L179.888 180.81C181.129 181.855 182.37 182.902 183.606 183.956C184.112 184.382 184.621 184.805 185.133 185.224L186.677 186.47L186.686 186.477C191.043 190.019 196.104 194.996 196.99 201.136L197.062 201.734L197.064 201.75L197.065 201.767C197.157 203.189 197.157 203.19 197.251 204.639C197.314 205.591 197.377 206.544 197.442 207.525V207.529C197.488 208.262 197.534 208.996 197.581 209.752L197.687 211.448L196.153 210.718C194.311 209.842 192.683 208.929 190.979 207.822C188.921 207.674 188.857 207.677 186.302 207.775H186.29L186.279 207.776C185.259 207.791 184.239 207.806 183.219 207.821L183.218 207.82C181.627 207.852 180.036 207.888 178.446 207.928H178.444C167.609 208.184 158.215 206.858 149.648 199.328L149.622 199.305L149.597 199.279C141.587 191.143 138.121 182.09 138.239 170.881C138.243 170.265 138.246 169.649 138.249 169.014V169.013C138.257 167.708 138.268 166.404 138.28 165.1C135.483 163.721 132.679 162.34 129.797 160.919L129.239 160.645V158.196L130.32 158.283Z" stroke="black" stroke-opacity="0.96" stroke-width="2"/>
<path d="M345.857 159.28C345.857 159.77 345.857 160.261 345.857 160.766C342.854 162.043 339.849 163.292 336.81 164.482C336.784 164.949 336.758 165.416 336.731 165.898C335.882 180.086 334.32 190.349 323.239 200.154C314.407 206.808 305.457 207.116 294.759 206.74C286.622 206.354 286.622 206.354 279.513 209.815C279.025 203.499 279.514 199.38 283.282 194.208C283.674 193.651 284.066 193.093 284.469 192.519C287.584 188.324 291.202 184.791 295.345 181.575C295.594 181.575 295.842 181.575 296.099 181.575C296.224 182.3 296.224 182.3 296.352 183.04C296.733 185.231 297.122 187.421 297.512 189.61C297.643 190.371 297.775 191.132 297.91 191.916C298.041 192.647 298.172 193.377 298.307 194.13C298.426 194.803 298.544 195.477 298.666 196.17C299.055 198.106 299.055 198.106 300.622 200.154C302.779 196.642 303.72 194.887 303.611 190.763C303.608 189.497 303.608 189.497 303.604 188.206C303.595 186.431 303.56 184.656 303.498 182.882C303.545 176.584 303.545 176.584 305.847 173.988C307.809 172.59 309.767 171.494 311.931 170.427C312.581 170.08 313.231 169.733 313.9 169.376C315.844 168.369 317.81 167.44 319.8 166.526C320.451 166.213 321.103 165.901 321.774 165.579C329.022 162.201 337.75 159.28 345.857 159.28Z" fill="#BDE5F4"/>
<path d="M321.352 164.672C328.654 161.268 337.538 158.28 345.857 158.28H346.857V161.427L346.248 161.686C343.438 162.881 340.619 164.051 337.772 165.175C337.757 165.432 337.744 165.69 337.73 165.953V165.957C337.305 173.056 336.698 179.287 334.77 184.99C332.83 190.725 329.568 195.889 323.902 200.903L323.872 200.929L323.841 200.953C314.711 207.831 305.447 208.116 294.724 207.74H294.712C290.593 207.544 288.704 207.462 286.948 207.816C285.197 208.169 283.55 208.962 279.95 210.714L278.629 211.357L278.516 209.892C278.269 206.701 278.262 203.978 278.824 201.371C279.391 198.748 280.522 196.298 282.474 193.62C282.862 193.067 283.251 192.513 283.651 191.944L283.666 191.922C286.844 187.643 290.529 184.047 294.732 180.785L295.002 180.575H296.941L297.084 181.405C297.209 182.129 297.21 182.13 297.337 182.869L298.496 189.435L298.497 189.44C298.629 190.201 298.761 190.962 298.896 191.746H298.895L299.291 193.953L299.292 193.956C299.41 194.625 299.528 195.293 299.649 195.981C299.85 196.981 299.925 197.324 300.1 197.68C300.196 197.876 300.324 198.078 300.531 198.369C301.203 197.23 301.688 196.306 302.024 195.355C302.464 194.105 302.664 192.763 302.612 190.789V190.765C302.608 189.501 302.607 189.5 302.604 188.211C302.595 186.446 302.56 184.681 302.498 182.917L302.497 182.896L302.498 182.875C302.521 179.8 302.525 178.058 302.86 176.791C303.224 175.411 303.979 174.588 305.099 173.325L305.174 173.24L305.267 173.173C307.281 171.738 309.285 170.617 311.474 169.537C312.119 169.193 312.764 168.848 313.429 168.494L313.441 168.488L314.917 167.739C316.397 167.003 317.886 166.304 319.382 165.617C320.029 165.307 320.676 164.996 321.342 164.677L321.352 164.672Z" stroke="black" stroke-opacity="0.96" stroke-width="2"/>
<path d="M382.044 144.416C383.288 144.416 384.532 144.416 385.813 144.416C391.092 155.592 392.21 168.379 393.588 180.506C393.654 181.072 393.719 181.638 393.787 182.22C394.435 187.887 394.959 193.556 395.152 199.257C395.18 200.064 395.208 200.872 395.236 201.704C394.747 204.525 393.622 205.538 391.468 207.4C389.848 208.505 388.24 209.542 386.567 210.558C385.62 211.164 384.674 211.772 383.728 212.381C381.195 213.991 378.63 215.542 376.048 217.074C374.548 217.964 373.055 218.862 371.563 219.763C363.867 224.389 356.151 228.997 347.685 232.124C344.973 233.205 342.421 234.565 339.849 235.933C339.343 236.143 338.838 236.353 338.317 236.569C337.82 236.323 337.322 236.078 336.81 235.826C340.442 232.171 344.11 228.617 348.045 225.279C357.134 217.871 357.134 217.871 364.704 209.072C365.202 209.072 365.699 209.072 366.212 209.072C366.499 208.422 366.499 208.422 366.792 207.76C367.82 205.919 368.958 204.757 370.5 203.312C373.006 200.9 375.403 198.456 377.64 195.797C379.028 194.208 379.028 194.208 380.423 192.904C384.791 188.412 384.928 183.961 384.806 178.059C384.765 176.909 384.724 175.758 384.683 174.607C384.663 173.439 384.645 172.272 384.63 171.104C384.663 165.48 384.663 165.48 383.552 160.023C383.322 157.725 383.169 155.426 383.01 153.122C382.922 151.132 382.922 151.132 382.044 149.619C382.014 147.885 382.011 146.15 382.044 144.416Z" fill="#333239"/>
<path d="M386.447 143.416L386.718 143.99C392.082 155.348 393.211 168.326 394.582 180.393H394.581C394.647 180.958 394.713 181.523 394.78 182.105V182.107C395.43 187.786 395.957 193.484 396.151 199.222L396.235 201.67L396.239 201.774L396.222 201.875C395.956 203.407 395.503 204.517 394.784 205.501C394.093 206.449 393.18 207.241 392.122 208.156L392.078 208.194L392.031 208.226C390.398 209.341 388.775 210.387 387.087 211.412C386.147 212.014 385.208 212.618 384.27 213.222L384.265 213.225C381.719 214.842 379.145 216.399 376.558 217.934C375.062 218.822 373.572 219.719 372.08 220.62L372.078 220.62C364.4 225.236 356.613 229.887 348.055 233.052L348.056 233.053C345.403 234.11 342.899 235.443 340.318 236.816L340.276 236.838L340.232 236.857C339.727 237.067 339.222 237.276 338.701 237.493L338.282 237.666L337.875 237.465C337.378 237.22 336.88 236.975 336.367 236.722L335.119 236.108L336.101 235.12C339.74 231.458 343.432 227.882 347.397 224.517L347.405 224.51L347.413 224.504C351.971 220.79 354.203 218.968 356.247 216.98C358.29 214.992 360.151 212.831 363.946 208.419L364.245 208.072H365.561C365.642 207.887 365.715 207.723 365.878 207.355L365.896 207.313L365.919 207.272C367.024 205.293 368.254 204.046 369.815 202.582C372.305 200.185 374.672 197.771 376.875 195.154L376.887 195.14C378.289 193.535 378.318 193.503 379.722 192.19C383.764 188.023 383.927 183.959 383.807 178.095L383.684 174.644L383.683 174.634V174.624C383.663 173.455 383.645 172.286 383.63 171.117V171.098C383.647 168.266 383.653 166.919 383.524 165.597C383.396 164.276 383.132 162.969 382.572 160.222L382.562 160.173L382.557 160.122C382.325 157.806 382.171 155.49 382.013 153.191L382.012 153.179L382.011 153.166C381.965 152.121 381.943 151.76 381.859 151.457C381.781 151.171 381.641 150.917 381.179 150.12L381.049 149.896L381.044 149.636C381.013 147.892 381.011 146.145 381.044 144.398L381.062 143.416H386.447Z" stroke="black" stroke-opacity="0.96" stroke-width="2"/>
<path d="M89.5284 145.16C91.0211 145.16 92.5139 145.16 94.0518 145.16C93.8886 146.1 93.7253 147.041 93.5571 148.01C89.3214 170.173 89.3214 170.173 93.7956 191.404C95.7405 193.826 97.9476 195.829 100.409 197.732C101.954 198.955 103.169 200.36 104.418 201.872C105.234 202.786 106.051 203.7 106.868 204.613C107.587 205.425 107.587 205.425 108.32 206.253C114.721 213.393 121.5 220.31 128.879 226.475C131.472 228.716 133.856 231.171 136.271 233.596C137.275 234.588 138.28 235.579 139.286 236.569C134.187 235.06 129.516 233.044 124.774 230.67C124.058 230.314 123.343 229.957 122.606 229.59C108.282 222.379 92.7447 214.472 81.2354 203.126C80.5743 191.184 81.5691 178.852 84.36 167.219C85.3326 163.091 86.1241 158.928 86.9306 154.765C87.5859 151.466 88.3544 148.328 89.5284 145.16Z" fill="#34343A"/>
<path d="M95.2407 144.16L95.0366 145.33C94.8734 146.271 94.7107 147.212 94.5425 148.181L94.5405 148.19L94.5396 148.198C92.4143 159.318 91.3805 164.747 91.4097 170.051C91.4386 175.311 92.5123 180.467 94.7231 190.958C96.3314 192.929 98.1286 194.624 100.125 196.234L101.02 196.941L101.03 196.948C102.66 198.238 103.929 199.71 105.178 201.222L107.613 203.946L107.617 203.95C108.334 204.76 108.336 204.762 109.065 205.585L110.265 206.917C115.89 213.119 121.803 219.112 128.153 224.551L129.52 225.707L129.526 225.713L129.533 225.718C132.16 227.988 134.573 230.475 136.972 232.884H136.973C137.977 233.876 138.982 234.867 139.988 235.856L139.002 237.528C133.829 235.997 129.102 233.955 124.328 231.565L122.16 230.485L122.157 230.484C107.858 223.286 92.1739 215.313 80.5337 203.838L80.2583 203.568L80.2368 203.182C79.5707 191.15 80.5722 178.719 83.3872 166.986C84.3538 162.883 85.1412 158.743 85.9487 154.576L85.9497 154.571C86.6104 151.244 87.3908 148.049 88.5903 144.812L88.8325 144.16H95.2407Z" stroke="black" stroke-opacity="0.96" stroke-width="2"/>
<path d="M201.86 263.323C204.468 264.465 206.435 266.015 208.646 267.782C213.741 271.72 218.888 275.577 224.148 279.301C224.807 279.77 224.807 279.77 225.48 280.249C227.588 281.729 229.653 283.083 232.017 284.131C230.883 286.921 229.265 288.294 226.881 290.123C226.238 290.622 225.596 291.121 224.934 291.635C219.872 295.279 219.872 295.279 217.692 295.279C217.692 295.769 217.692 296.26 217.692 296.765C217.176 296.951 216.66 297.137 216.129 297.328C213.558 298.404 211.19 299.741 208.787 301.131C207.847 301.664 206.907 302.196 205.966 302.728C204.484 303.566 203.003 304.405 201.525 305.248C198.195 307.037 195.804 307.997 192.06 307.169C189.303 305.187 186.947 302.838 184.521 300.481C183.049 299.144 181.573 297.813 180.091 296.486C179.33 295.798 178.569 295.109 177.809 294.419C176.216 292.976 174.619 291.537 173.02 290.1C172.619 289.738 172.217 289.376 171.802 289.004C170.687 288 169.572 286.998 168.456 285.995C164.507 282.368 164.507 282.368 162.657 280.415C162.657 279.925 162.657 279.434 162.657 278.929C178.951 281.687 178.951 281.687 184.465 284.175C186.704 285.177 189.026 285.862 191.373 286.576C192.813 287.104 192.813 287.104 195.075 288.59C200.463 289.097 205.71 288.65 210.963 287.429C212.415 287.104 212.415 287.104 213.923 287.104C213.543 284.003 212.758 282.653 210.436 280.555C209.897 280.043 209.357 279.532 208.802 279.005C208.253 278.489 207.703 277.974 207.138 277.443C203.413 273.904 201.307 271.419 201.012 266.208C201.106 264.809 201.106 264.809 201.86 263.323Z" fill="#36353C"/>
<path d="M202.262 262.407C204.999 263.606 207.057 265.233 209.257 266.991L211.167 268.461C214.993 271.394 218.85 274.277 222.764 277.086L224.726 278.485L224.728 278.486C225.385 278.954 225.387 278.956 226.054 279.43H226.055C228.15 280.902 230.15 282.21 232.422 283.217L233.308 283.61L232.943 284.507C231.704 287.558 229.898 289.069 227.489 290.916C226.849 291.414 226.208 291.912 225.548 292.425L225.519 292.447C223.029 294.239 221.677 295.215 220.682 295.716C219.922 296.099 219.333 296.219 218.692 296.258V297.468L218.031 297.705C217.523 297.888 217.015 298.071 216.492 298.259C213.995 299.306 211.684 300.61 209.287 301.996L209.28 302.001C208.34 302.535 207.398 303.066 206.457 303.597L206.458 303.598C204.977 304.436 203.497 305.275 202.02 306.117L201.998 306.128C200.324 307.028 198.798 307.769 197.184 308.161C195.542 308.56 193.853 308.59 191.844 308.146L191.643 308.101L191.476 307.981C188.655 305.953 186.248 303.554 183.848 301.221L181.64 299.222C180.902 298.557 180.164 297.894 179.424 297.232L179.421 297.228L177.138 295.161L172.352 290.843C171.95 290.481 171.548 290.119 171.134 289.746C170.019 288.743 168.903 287.741 167.787 286.739L167.779 286.732C163.827 283.101 163.806 283.082 161.932 281.103L161.657 280.814V277.745L162.824 277.943C170.95 279.318 175.069 280.015 177.837 280.681C180.66 281.36 182.112 282.016 184.876 283.263H184.875C187.044 284.233 189.3 284.9 191.664 285.619L191.691 285.627L191.718 285.637C192.428 285.898 192.857 286.053 193.395 286.345C193.869 286.604 194.432 286.971 195.409 287.614C200.595 288.074 205.655 287.636 210.737 286.455L210.745 286.453C211.45 286.296 211.875 286.199 212.312 286.151C212.457 286.135 212.603 286.125 212.759 286.119C212.586 285.218 212.356 284.536 212.027 283.929C211.573 283.09 210.895 282.317 209.766 281.296L209.748 281.281C209.21 280.77 208.672 280.26 208.117 279.734L206.453 278.172L206.449 278.167C204.584 276.395 203.036 274.809 201.931 272.967C200.808 271.096 200.169 269.01 200.014 266.265L200.011 266.203L200.015 266.141C200.059 265.478 200.086 265.005 200.229 264.516C200.368 264.046 200.61 263.577 200.969 262.87L201.396 262.028L202.262 262.407Z" stroke="black" stroke-opacity="0.96" stroke-width="2"/>
<path d="M271.974 264.066C272.72 264.311 273.466 264.556 274.235 264.809C274.904 266.664 274.904 266.664 274.989 269.268C273.72 271.503 272.041 273.347 270.324 275.26C269.656 276.034 269.656 276.034 268.974 276.823C268.11 277.824 267.241 278.821 266.368 279.815C263.397 282.718 263.397 282.718 262.173 286.361C272.918 290.297 281.215 288.184 291.575 284.549C298.89 282.001 305.575 279.761 313.438 279.672C310.214 283.517 306.8 286.941 303.072 290.309C299.526 293.542 296.033 296.795 292.659 300.202C285.771 307.015 285.771 307.015 281.529 307.392C278.487 307.147 276.808 306.457 274.162 304.992C272.889 304.294 272.889 304.294 271.591 303.582C270.697 303.076 269.804 302.568 268.911 302.06C267.995 301.548 267.078 301.036 266.162 300.525C258.588 296.264 250.9 291.88 244.833 285.618C245.902 283.055 247.07 281.928 249.409 280.424C250.024 280.021 250.638 279.618 251.271 279.203C251.914 278.791 252.557 278.379 253.22 277.954C257.515 275.183 261.557 272.373 265.358 268.963C267.461 267.107 269.58 265.547 271.974 264.066Z" fill="#36353B"/>
<path d="M272.286 263.116L274.548 263.859L275.011 264.011L275.176 264.47C275.501 265.374 275.705 265.928 275.817 266.591C275.926 267.231 275.947 267.965 275.988 269.235L275.998 269.517L275.858 269.762C274.526 272.108 272.769 274.032 271.069 275.927C270.413 276.687 270.409 276.692 269.731 277.477H269.73C268.864 278.479 267.995 279.479 267.12 280.475L267.095 280.503L267.067 280.531C265.547 282.016 264.905 282.651 264.457 283.35C264.097 283.912 263.853 284.529 263.438 285.745C273.398 289.111 281.239 287.116 291.244 283.606L291.246 283.605C298.553 281.059 305.38 278.763 313.427 278.672L315.603 278.648L314.205 280.315C310.944 284.203 307.496 287.66 303.743 291.051C300.202 294.279 296.724 297.517 293.369 300.906L293.362 300.913C289.964 304.275 288.147 306.08 286.645 307.05C285.019 308.1 283.72 308.201 281.617 308.388L281.533 308.396L281.448 308.389C278.221 308.129 276.403 307.375 273.681 305.868V305.869C272.409 305.171 272.408 305.171 271.11 304.459L271.098 304.453C270.206 303.947 269.314 303.44 268.423 302.933C267.507 302.421 266.59 301.909 265.674 301.398L265.671 301.397C258.116 297.146 250.298 292.696 244.114 286.313L243.656 285.84L243.91 285.233C244.476 283.875 245.091 282.847 245.904 281.952C246.609 281.176 247.435 280.533 248.431 279.87L248.868 279.583C249.48 279.182 250.092 278.781 250.723 278.368L250.731 278.362C251.375 277.949 252.018 277.537 252.681 277.112C256.958 274.352 260.949 271.576 264.69 268.218L264.696 268.212C266.843 266.318 269.007 264.724 271.447 263.215L271.844 262.97L272.286 263.116Z" stroke="black" stroke-opacity="0.96" stroke-width="2"/>
<path d="M87.2666 221.705C87.7496 221.948 88.2326 222.19 88.7302 222.44C89.3823 222.765 90.0344 223.089 90.7063 223.424C91.3448 223.743 91.9833 224.062 92.6411 224.391C94.1844 225.125 95.7493 225.817 97.3265 226.478C100.3 227.743 103.179 229.136 106.067 230.577C106.568 230.826 107.069 231.074 107.585 231.33C108.594 231.831 109.603 232.332 110.612 232.833C112.203 233.625 113.795 234.416 115.388 235.204C115.864 235.441 116.341 235.677 116.832 235.92C119.002 236.967 121.224 237.885 123.454 238.798C124.087 239.065 124.719 239.331 125.371 239.605C133.59 243.038 141.918 246.154 150.406 248.877C153.749 249.955 156.984 251.115 160.207 252.5C166.372 255.122 172.828 256.939 179.243 258.864C179.243 259.599 179.243 260.335 179.243 261.093C176.333 260.595 173.423 260.093 170.514 259.587C169.044 259.332 167.572 259.081 166.101 258.829C164.698 258.585 164.698 258.585 163.267 258.335C161.982 258.113 161.982 258.113 160.671 257.887C158.017 257.354 155.457 256.635 152.856 255.891C150.878 255.545 148.904 255.221 146.919 254.916C141.752 254.073 136.824 252.828 131.821 251.312C128.658 250.356 125.506 249.503 122.276 248.784C121.499 248.605 120.721 248.426 119.92 248.242C118.109 247.861 116.284 247.541 114.454 247.26C105.723 245.771 101.539 241.959 96.3135 235.082C95.4272 233.934 95.4272 233.934 94.5229 232.763C93.5233 231.428 92.5388 230.082 91.578 228.719C90.2685 226.84 90.2685 226.84 88.6095 224.91C87.2666 223.192 87.2666 223.192 87.2666 221.705Z" fill="#343339"/>
<path d="M180.243 262.279L179.074 262.078C176.163 261.58 173.253 261.078 170.343 260.573V260.572C168.874 260.317 167.404 260.067 165.933 259.815L165.93 259.814C164.527 259.57 164.527 259.57 163.096 259.321V259.32C161.812 259.098 161.811 259.099 160.501 258.872L160.487 258.87L160.474 258.868C157.796 258.33 155.22 257.606 152.642 256.869C150.684 256.526 148.731 256.206 146.768 255.904L146.759 255.903C141.536 255.051 136.563 253.793 131.531 252.269V252.27C128.387 251.319 125.259 250.473 122.059 249.761L122.052 249.759C121.276 249.58 120.5 249.401 119.7 249.217C117.916 248.842 116.114 248.527 114.303 248.248L114.294 248.247L114.286 248.246C109.797 247.481 106.42 246.106 103.487 244.005C100.574 241.919 98.1497 239.151 95.5215 235.693C94.6357 234.545 94.6353 234.545 93.7314 233.374L93.7266 233.369L93.7227 233.363C92.7185 232.022 91.7281 230.667 90.7607 229.295L90.7578 229.29C89.4697 227.442 89.4908 227.468 87.8516 225.562L87.8359 225.544L87.8213 225.526C87.1937 224.723 86.7448 224.163 86.5117 223.607C86.251 222.984 86.2666 222.392 86.2666 221.705V220.084L87.7148 220.812C88.1967 221.054 88.6784 221.296 89.1748 221.545L89.1758 221.544L91.1523 222.529L91.1533 222.53C91.7861 222.846 92.4187 223.162 93.0703 223.488C94.2151 224.033 95.3739 224.554 96.542 225.058L97.7129 225.556L97.7178 225.558C100.718 226.835 103.619 228.237 106.512 229.681L108.029 230.435C109.038 230.936 110.048 231.436 111.057 231.938L115.832 234.308C116.305 234.543 116.779 234.778 117.267 235.02L118.071 235.401C119.955 236.278 121.88 237.073 123.833 237.872L123.842 237.876C124.474 238.142 125.106 238.409 125.757 238.683L127.295 239.321C134.991 242.493 142.783 245.381 150.712 247.925H150.713C154.075 249.009 157.342 250.18 160.602 251.581H160.601C166.701 254.175 173.09 255.973 179.53 257.906L180.243 258.12V262.279Z" stroke="black" stroke-opacity="0.96" stroke-width="2"/>
<path d="M388.075 221.705C388.822 222.073 388.822 222.073 389.583 222.449C389.091 223.023 388.6 223.598 388.093 224.19C383.784 229.227 383.784 229.227 379.688 234.432C379.36 234.86 379.032 235.287 378.694 235.728C377.877 236.831 377.099 237.965 376.356 239.118C372.204 245.056 368.086 246.319 361.076 247.623C359.624 247.93 359.624 247.93 358.142 248.244C355.308 248.838 352.469 249.395 349.626 249.946C347.536 250.374 345.449 250.809 343.361 251.245C342.182 251.49 341.001 251.732 339.82 251.969C336.357 252.667 333.035 253.56 329.674 254.622C326.752 255.426 323.777 255.913 320.791 256.43C315.366 257.389 310.015 258.649 304.665 259.95C303.988 260.109 303.31 260.268 302.613 260.431C302.011 260.577 301.408 260.722 300.788 260.872C298.995 261.109 297.807 260.897 296.099 260.35C299.953 258.379 303.759 256.701 307.878 255.334C308.999 254.952 310.119 254.57 311.239 254.187C312.13 253.883 312.13 253.883 313.04 253.573C321.62 250.626 330.194 247.632 338.547 244.102C340.762 243.181 342.997 242.333 345.244 241.492C357.872 236.79 357.872 236.79 369.831 230.673C371.489 229.88 371.489 229.88 374.505 229.88C374.505 229.39 374.505 228.899 374.505 228.394C379.028 226.164 383.552 223.935 388.075 221.705Z" fill="#333238"/>
<path d="M388.518 220.809L390.025 221.552L391.18 222.12L390.343 223.099C389.851 223.674 389.359 224.248 388.853 224.84C384.555 229.863 384.56 229.855 380.48 235.039L380.481 235.04C380.157 235.464 379.831 235.887 379.497 236.323C378.694 237.406 377.93 238.522 377.196 239.66L377.175 239.691C375.021 242.772 372.834 244.694 370.237 246.001C367.677 247.291 364.773 247.952 361.272 248.604C359.83 248.909 359.827 248.909 358.349 249.222H358.347C355.505 249.818 352.66 250.376 349.816 250.927C347.732 251.354 345.65 251.788 343.565 252.224H343.564L340.018 252.949C336.596 253.638 333.309 254.522 329.976 255.576L329.957 255.581L329.939 255.586C326.961 256.405 323.932 256.901 320.964 257.414C315.573 258.367 310.25 259.622 304.901 260.922L304.893 260.924C304.217 261.082 303.542 261.24 302.847 261.403C302.245 261.548 301.643 261.694 301.022 261.844L300.971 261.856L300.919 261.863C298.936 262.125 297.594 261.879 295.794 261.302L293.486 260.563L295.644 259.459C299.289 257.595 302.904 255.984 306.784 254.648L307.563 254.384C308.681 254.004 309.798 253.623 310.915 253.241H310.916C311.808 252.937 311.808 252.936 312.718 252.626C321.298 249.679 329.842 246.696 338.158 243.181L338.163 243.178C340.395 242.25 342.645 241.397 344.894 240.556L344.895 240.555C357.486 235.866 357.451 235.882 369.376 229.783L369.388 229.777L369.4 229.771C370.204 229.387 370.746 229.12 371.492 228.994C372.007 228.906 372.618 228.886 373.505 228.881V227.772L374.062 227.497C374.071 227.493 374.08 227.488 374.089 227.484C374.098 227.479 374.107 227.475 374.116 227.471C374.125 227.467 374.134 227.462 374.143 227.457L374.195 227.432C374.204 227.428 374.213 227.423 374.222 227.418C374.23 227.414 374.239 227.41 374.248 227.406C374.257 227.401 374.266 227.396 374.274 227.392C374.283 227.388 374.293 227.384 374.302 227.379C374.31 227.375 374.319 227.371 374.328 227.367C374.337 227.362 374.346 227.357 374.354 227.353L374.407 227.328C374.416 227.323 374.425 227.318 374.434 227.314C374.442 227.31 374.451 227.305 374.46 227.301C374.469 227.297 374.478 227.292 374.487 227.287L374.54 227.262C374.549 227.258 374.558 227.253 374.566 227.248L374.619 227.223C374.628 227.219 374.637 227.214 374.646 227.209C374.654 227.205 374.664 227.201 374.673 227.197C374.682 227.192 374.69 227.187 374.699 227.183L374.752 227.158C374.761 227.153 374.769 227.148 374.778 227.144L374.831 227.119C374.84 227.114 374.85 227.109 374.858 227.105C374.867 227.101 374.876 227.096 374.885 227.092C374.894 227.088 374.902 227.083 374.911 227.078L374.964 227.053C374.973 227.049 374.981 227.044 374.99 227.039L375.043 227.014C375.052 227.01 375.061 227.005 375.07 227C375.079 226.996 375.088 226.992 375.097 226.988C375.105 226.983 375.114 226.978 375.123 226.974L375.176 226.949C375.185 226.944 375.193 226.939 375.202 226.935C375.211 226.931 375.22 226.927 375.229 226.922C375.237 226.918 375.247 226.914 375.256 226.91C375.265 226.905 375.273 226.9 375.282 226.896C375.291 226.892 375.3 226.887 375.309 226.883C375.317 226.879 375.326 226.874 375.335 226.87L375.388 226.844C375.396 226.84 375.405 226.835 375.414 226.83C375.423 226.826 375.433 226.822 375.441 226.818C375.45 226.813 375.459 226.809 375.468 226.805C375.477 226.801 375.485 226.796 375.494 226.791C375.503 226.787 375.512 226.783 375.521 226.779C375.529 226.774 375.538 226.769 375.547 226.765L375.6 226.74C375.608 226.735 375.618 226.73 375.627 226.726L375.68 226.701C375.689 226.696 375.697 226.691 375.706 226.687C375.715 226.683 375.724 226.679 375.732 226.674C375.741 226.67 375.75 226.665 375.759 226.661C375.768 226.656 375.776 226.652 375.785 226.648C375.794 226.643 375.804 226.639 375.812 226.635C375.821 226.631 375.83 226.626 375.839 226.621C375.848 226.617 375.857 226.613 375.865 226.609C375.874 226.604 375.883 226.599 375.892 226.595L375.944 226.57C375.953 226.565 375.962 226.56 375.971 226.556C375.98 226.552 375.989 226.548 375.998 226.543C376.007 226.539 376.016 226.535 376.024 226.531C376.033 226.526 376.042 226.521 376.051 226.517C376.06 226.513 376.068 226.509 376.077 226.504C376.086 226.5 376.095 226.495 376.104 226.491L376.156 226.465C376.165 226.461 376.175 226.456 376.184 226.452L376.236 226.426C376.245 226.422 376.254 226.417 376.263 226.412C376.271 226.408 376.28 226.404 376.289 226.4C376.298 226.395 376.307 226.39 376.315 226.386C376.324 226.382 376.333 226.378 376.342 226.373C376.351 226.369 376.36 226.365 376.369 226.361C376.378 226.356 376.387 226.351 376.396 226.347L376.448 226.322C376.457 226.317 376.466 226.312 376.475 226.308C376.483 226.304 376.492 226.3 376.501 226.295C376.51 226.291 376.519 226.286 376.527 226.282C376.536 226.277 376.546 226.273 376.555 226.269C376.563 226.265 376.572 226.261 376.581 226.256C376.59 226.252 376.599 226.247 376.607 226.243L376.66 226.217C376.669 226.213 376.678 226.208 376.687 226.203C376.695 226.199 376.704 226.195 376.713 226.191C376.722 226.186 376.73 226.181 376.739 226.177C376.748 226.173 376.758 226.169 376.767 226.164C376.775 226.16 376.784 226.156 376.793 226.152C376.802 226.147 376.811 226.142 376.819 226.138L376.872 226.113C376.881 226.108 376.89 226.103 376.898 226.099C376.907 226.095 376.916 226.091 376.925 226.086C376.934 226.082 376.943 226.077 376.952 226.073L377.005 226.047C377.014 226.043 377.022 226.038 377.031 226.034L377.084 226.008C377.093 226.004 377.102 225.999 377.11 225.995C377.119 225.99 377.129 225.986 377.138 225.982C377.146 225.977 377.155 225.972 377.164 225.968L377.217 225.943C377.226 225.938 377.234 225.933 377.243 225.929L377.296 225.904C377.305 225.899 377.314 225.894 377.323 225.89C377.332 225.886 377.341 225.882 377.35 225.877C377.358 225.873 377.367 225.868 377.376 225.864L377.429 225.838C377.438 225.834 377.446 225.829 377.455 225.825C377.464 225.82 377.473 225.816 377.481 225.812C377.49 225.808 377.5 225.804 377.509 225.799C377.518 225.795 377.526 225.79 377.535 225.786C377.544 225.781 377.553 225.777 377.562 225.773C377.57 225.768 377.579 225.764 377.588 225.759L377.641 225.734C377.649 225.729 377.658 225.724 377.667 225.72C377.676 225.716 377.686 225.712 377.694 225.707C377.703 225.703 377.712 225.698 377.721 225.694L377.773 225.668C377.782 225.664 377.791 225.659 377.8 225.655L377.853 225.629C377.861 225.625 377.871 225.62 377.88 225.616C377.889 225.611 377.898 225.607 377.906 225.603C377.915 225.599 377.924 225.594 377.933 225.589L377.985 225.564C377.994 225.559 378.003 225.555 378.012 225.55C378.02 225.546 378.029 225.542 378.038 225.537C378.047 225.533 378.057 225.529 378.065 225.525C378.074 225.52 378.083 225.515 378.092 225.511C378.101 225.507 378.109 225.503 378.118 225.498C378.127 225.494 378.136 225.489 378.145 225.485L378.197 225.459C378.206 225.455 378.215 225.45 378.224 225.446C378.232 225.441 378.242 225.437 378.251 225.433C378.26 225.429 378.269 225.425 378.277 225.42C378.286 225.416 378.295 225.411 378.304 225.407C378.312 225.402 378.321 225.398 378.33 225.394C378.339 225.39 378.348 225.385 378.356 225.38L378.409 225.355C378.418 225.351 378.427 225.345 378.436 225.341C378.444 225.337 378.454 225.333 378.463 225.328C378.472 225.324 378.481 225.32 378.489 225.316C378.498 225.311 378.507 225.306 378.516 225.302C378.524 225.298 378.533 225.294 378.542 225.289C378.551 225.285 378.56 225.28 378.568 225.276L378.621 225.25C378.63 225.246 378.64 225.241 378.648 225.237L378.701 225.211C378.71 225.207 378.719 225.202 378.728 225.198C378.736 225.193 378.745 225.189 378.754 225.185C378.763 225.181 378.771 225.176 378.78 225.171C378.789 225.167 378.798 225.163 378.807 225.159C378.815 225.154 378.825 225.15 378.834 225.146C378.843 225.142 378.852 225.137 378.86 225.132L378.913 225.107C378.922 225.102 378.931 225.097 378.939 225.093C378.948 225.089 378.957 225.085 378.966 225.08C378.975 225.076 378.983 225.071 378.992 225.067C379.001 225.062 379.011 225.058 379.02 225.054C379.028 225.05 379.037 225.046 379.046 225.041C379.055 225.037 379.063 225.032 379.072 225.028L379.125 225.002C379.134 224.998 379.143 224.993 379.151 224.989C379.16 224.984 379.169 224.98 379.178 224.976C379.187 224.972 379.196 224.967 379.205 224.962L379.258 224.937C379.267 224.933 379.275 224.928 379.284 224.923C379.293 224.919 379.302 224.915 379.311 224.911C379.319 224.906 379.328 224.901 379.337 224.897C379.346 224.893 379.355 224.888 379.363 224.884C379.372 224.88 379.382 224.876 379.391 224.871C379.399 224.867 379.408 224.862 379.417 224.858L379.47 224.832C379.479 224.828 379.487 224.823 379.496 224.819C379.505 224.814 379.514 224.81 379.522 224.806C379.531 224.802 379.54 224.797 379.549 224.792C379.558 224.788 379.567 224.784 379.576 224.78C379.585 224.775 379.594 224.771 379.603 224.767C379.611 224.763 379.62 224.758 379.629 224.753L379.682 224.728C379.69 224.724 379.699 224.719 379.708 224.714C379.717 224.71 379.726 224.706 379.734 224.702C379.743 224.697 379.753 224.692 379.762 224.688L379.814 224.662C379.823 224.658 379.832 224.653 379.841 224.649L379.894 224.623C379.902 224.619 379.911 224.614 379.92 224.61C379.929 224.605 379.938 224.601 379.947 224.597C379.956 224.593 379.965 224.588 379.974 224.583L380.026 224.558C380.035 224.554 380.044 224.549 380.053 224.544L380.105 224.519C380.114 224.515 380.123 224.51 380.132 224.505C380.141 224.501 380.15 224.497 380.159 224.493C380.168 224.488 380.177 224.483 380.186 224.479L380.238 224.453C380.247 224.449 380.256 224.444 380.265 224.44L380.317 224.414C380.326 224.41 380.336 224.405 380.345 224.401C380.353 224.396 380.362 224.392 380.371 224.388C380.38 224.384 380.389 224.379 380.397 224.374L380.45 224.349C380.459 224.345 380.468 224.34 380.477 224.335C380.485 224.331 380.494 224.327 380.503 224.323C380.512 224.318 380.521 224.314 380.53 224.31C380.539 224.306 380.548 224.301 380.557 224.296C380.565 224.292 380.574 224.288 380.583 224.284C380.592 224.279 380.601 224.274 380.609 224.27L380.662 224.245C380.671 224.24 380.68 224.235 380.688 224.231C380.697 224.226 380.707 224.222 380.716 224.218C380.725 224.214 380.733 224.21 380.742 224.205C380.751 224.201 380.76 224.196 380.769 224.192C380.777 224.187 380.786 224.183 380.795 224.179C380.804 224.175 380.812 224.17 380.821 224.165L380.874 224.14C380.883 224.136 380.893 224.131 380.901 224.126C380.91 224.122 380.919 224.118 380.928 224.114C380.937 224.109 380.945 224.104 380.954 224.1L381.007 224.075C381.016 224.07 381.024 224.065 381.033 224.061C381.042 224.057 381.051 224.053 381.06 224.048C381.068 224.044 381.078 224.04 381.087 224.036C381.096 224.031 381.105 224.026 381.113 224.022C381.122 224.018 381.131 224.013 381.14 224.009C381.148 224.005 381.157 224 381.166 223.995L381.219 223.97C381.228 223.966 381.236 223.961 381.245 223.956C381.254 223.952 381.264 223.948 381.272 223.944C381.281 223.939 381.29 223.935 381.299 223.931C381.308 223.927 381.316 223.922 381.325 223.917C381.334 223.913 381.343 223.909 381.352 223.905C381.36 223.9 381.369 223.895 381.378 223.891L381.431 223.866C381.439 223.861 381.449 223.856 381.458 223.852L381.511 223.827C381.52 223.822 381.528 223.817 381.537 223.813C381.546 223.809 381.555 223.804 381.563 223.8C381.572 223.796 381.581 223.791 381.59 223.786C381.599 223.782 381.607 223.778 381.616 223.774C381.625 223.769 381.635 223.765 381.644 223.761C381.652 223.757 381.661 223.752 381.67 223.747L381.723 223.722C381.731 223.718 381.74 223.713 381.749 223.708C381.758 223.704 381.767 223.7 381.775 223.696C381.784 223.691 381.793 223.686 381.802 223.682C381.81 223.678 381.819 223.674 381.828 223.669C381.837 223.665 381.847 223.661 381.855 223.657C381.864 223.652 381.873 223.647 381.882 223.643L381.935 223.618C381.943 223.613 381.952 223.608 381.961 223.604C381.97 223.6 381.979 223.595 381.987 223.591C381.996 223.587 382.005 223.582 382.014 223.578C382.023 223.573 382.032 223.569 382.041 223.565C382.05 223.561 382.059 223.556 382.067 223.552C382.076 223.548 382.085 223.543 382.094 223.538L382.146 223.513C382.155 223.509 382.164 223.504 382.173 223.499C382.182 223.495 382.191 223.491 382.199 223.487C382.208 223.482 382.218 223.477 382.227 223.473L382.279 223.448C382.288 223.443 382.297 223.438 382.306 223.434L382.358 223.409C382.367 223.404 382.376 223.399 382.385 223.395C382.394 223.391 382.403 223.387 382.412 223.382C382.421 223.378 382.43 223.373 382.438 223.369L382.491 223.343C382.5 223.339 382.509 223.334 382.518 223.329L382.57 223.304C382.579 223.3 382.589 223.295 382.598 223.29C382.606 223.286 382.615 223.282 382.624 223.278C382.633 223.273 382.642 223.268 382.65 223.264L382.703 223.239C382.712 223.234 382.721 223.229 382.729 223.225C382.738 223.221 382.747 223.217 382.756 223.212C382.765 223.208 382.774 223.203 382.783 223.199L382.836 223.173C382.845 223.169 382.853 223.164 382.862 223.16L382.915 223.134C382.924 223.13 382.933 223.125 382.941 223.12C382.95 223.116 382.96 223.112 382.969 223.108C382.977 223.103 382.986 223.098 382.995 223.094L383.048 223.069C383.057 223.064 383.065 223.059 383.074 223.055L383.127 223.03C383.136 223.025 383.145 223.02 383.154 223.016C383.163 223.012 383.172 223.008 383.181 223.003C383.189 222.999 383.198 222.994 383.207 222.99L383.26 222.964C383.269 222.96 383.277 222.955 383.286 222.951C383.295 222.946 383.304 222.942 383.312 222.938C383.321 222.934 383.331 222.93 383.34 222.925C383.349 222.921 383.357 222.916 383.366 222.911C383.375 222.907 383.384 222.903 383.393 222.899C383.401 222.894 383.41 222.889 383.419 222.885L383.472 222.86C383.48 222.855 383.489 222.85 383.498 222.846C383.507 222.842 383.516 222.838 383.524 222.833C383.533 222.829 383.543 222.825 383.552 222.821C383.561 222.816 383.569 222.811 383.578 222.807C383.587 222.803 383.596 222.799 383.604 222.794C383.613 222.79 383.622 222.785 383.631 222.781L383.684 222.755C383.692 222.751 383.701 222.746 383.71 222.742C383.719 222.737 383.728 222.733 383.737 222.729C383.746 222.725 383.755 222.72 383.764 222.716C383.773 222.712 383.781 222.707 383.79 222.703C383.799 222.698 383.808 222.694 383.816 222.69C383.825 222.685 383.834 222.681 383.843 222.676L383.896 222.651C383.904 222.646 383.914 222.641 383.923 222.637L383.976 222.612C383.984 222.607 383.993 222.602 384.002 222.598C384.011 222.594 384.02 222.59 384.028 222.585C384.037 222.581 384.046 222.576 384.055 222.572C384.063 222.567 384.072 222.563 384.081 222.559C384.09 222.555 384.1 222.551 384.108 222.546C384.117 222.542 384.126 222.537 384.135 222.533L384.188 222.507C384.196 222.503 384.205 222.498 384.214 222.494C384.223 222.489 384.232 222.485 384.24 222.481C384.249 222.477 384.258 222.471 384.267 222.467C384.275 222.463 384.285 222.459 384.294 222.454C384.303 222.45 384.312 222.446 384.32 222.442C384.329 222.437 384.338 222.432 384.347 222.428C384.355 222.424 384.364 222.42 384.373 222.415C384.382 222.411 384.391 222.406 384.399 222.402L384.452 222.376C384.461 222.372 384.471 222.367 384.479 222.363L384.532 222.337C384.541 222.333 384.55 222.328 384.559 222.324C384.567 222.319 384.576 222.315 384.585 222.311C384.594 222.307 384.603 222.302 384.611 222.297C384.62 222.293 384.629 222.289 384.638 222.285C384.647 222.28 384.656 222.276 384.665 222.272C384.674 222.268 384.683 222.262 384.691 222.258L384.744 222.233C384.753 222.228 384.762 222.223 384.771 222.219C384.779 222.215 384.788 222.211 384.797 222.206C384.806 222.202 384.814 222.197 384.823 222.193C384.832 222.188 384.842 222.184 384.851 222.18C384.859 222.176 384.868 222.172 384.877 222.167C384.886 222.163 384.895 222.158 384.903 222.154L384.956 222.128C384.965 222.124 384.974 222.119 384.982 222.115C384.991 222.11 385 222.106 385.009 222.102C385.018 222.098 385.027 222.093 385.036 222.088L385.089 222.063C385.098 222.059 385.106 222.054 385.115 222.049L385.168 222.024C385.177 222.019 385.186 222.014 385.194 222.01C385.203 222.006 385.212 222.002 385.221 221.997C385.23 221.993 385.239 221.988 385.248 221.984L385.301 221.958C385.31 221.954 385.318 221.949 385.327 221.945L385.38 221.919C385.389 221.915 385.398 221.91 385.406 221.906C385.415 221.901 385.425 221.897 385.434 221.893C385.442 221.889 385.451 221.884 385.46 221.879L385.513 221.854C385.522 221.85 385.53 221.845 385.539 221.84L385.592 221.815C385.601 221.81 385.61 221.806 385.619 221.801C385.628 221.797 385.637 221.793 385.646 221.788C385.654 221.784 385.663 221.779 385.672 221.775L385.725 221.749C385.733 221.745 385.742 221.74 385.751 221.736C385.76 221.731 385.769 221.727 385.777 221.723C385.786 221.719 385.796 221.715 385.805 221.71C385.813 221.706 385.822 221.701 385.831 221.697C385.84 221.692 385.849 221.688 385.857 221.684C385.866 221.68 385.875 221.675 385.884 221.67L385.937 221.645C385.945 221.641 385.954 221.636 385.963 221.631C385.972 221.627 385.981 221.623 385.99 221.619C385.999 221.614 386.008 221.609 386.017 221.605L386.069 221.579C386.078 221.575 386.087 221.57 386.096 221.566L386.148 221.54C386.157 221.536 386.167 221.531 386.176 221.527C386.184 221.522 386.193 221.518 386.202 221.514C386.211 221.51 386.22 221.505 386.229 221.5L386.281 221.475C386.29 221.471 386.299 221.466 386.308 221.461C386.316 221.457 386.325 221.453 386.334 221.449C386.343 221.444 386.352 221.44 386.361 221.436C386.37 221.432 386.379 221.427 386.388 221.422C386.396 221.418 386.405 221.414 386.414 221.41C386.423 221.405 386.432 221.4 386.44 221.396L386.493 221.37C386.502 221.366 386.511 221.361 386.52 221.357C386.528 221.352 386.538 221.348 386.547 221.344C386.556 221.34 386.565 221.336 386.573 221.331C386.582 221.327 386.591 221.322 386.6 221.318C386.608 221.313 386.617 221.309 386.626 221.305C386.635 221.301 386.644 221.296 386.652 221.291L386.705 221.266C386.714 221.262 386.724 221.257 386.732 221.252L386.785 221.227C386.794 221.223 386.803 221.218 386.812 221.213C386.82 221.209 386.829 221.205 386.838 221.201C386.847 221.196 386.855 221.191 386.864 221.187L386.917 221.161C386.926 221.157 386.936 221.152 386.944 221.148L386.997 221.122C387.006 221.118 387.015 221.113 387.023 221.109C387.032 221.104 387.041 221.1 387.05 221.096C387.059 221.092 387.067 221.087 387.076 221.082C387.085 221.078 387.094 221.074 387.103 221.07C387.111 221.065 387.121 221.061 387.13 221.057C387.139 221.053 387.147 221.048 387.156 221.043L387.209 221.018C387.218 221.014 387.227 221.009 387.235 221.004C387.244 221 387.253 220.996 387.262 220.992C387.27 220.987 387.279 220.982 387.288 220.978C387.297 220.974 387.307 220.97 387.315 220.965C387.324 220.961 387.333 220.957 387.342 220.953C387.351 220.948 387.359 220.943 387.368 220.939L387.421 220.913C387.43 220.909 387.438 220.904 387.447 220.9C387.456 220.895 387.465 220.891 387.474 220.887C387.482 220.883 387.492 220.878 387.501 220.873L387.554 220.848C387.563 220.844 387.571 220.839 387.58 220.834L387.633 220.809L388.075 220.59L388.518 220.809Z" stroke="black" stroke-opacity="0.96" stroke-width="2"/>
<path d="M142.939 277.167C144.732 277.164 146.524 277.137 148.317 277.109C149.464 277.105 150.611 277.102 151.758 277.1C152.29 277.09 152.823 277.079 153.371 277.068C154.868 277.082 154.868 277.082 157.38 277.443C158.862 278.951 158.862 278.951 159.642 280.415C158.748 280.551 157.853 280.686 156.932 280.825C146.812 282.367 136.721 283.926 126.8 286.462C123.529 287.272 120.242 288 116.952 288.73C109.864 290.31 102.78 291.908 95.7019 293.532C94.5433 293.798 93.3845 294.062 92.2253 294.324C90.5853 294.696 88.9465 295.072 87.3078 295.45C86.3553 295.668 85.4028 295.885 84.4214 296.11C82.3818 296.659 80.8333 297.314 78.9736 298.251C77.7306 298.557 76.4761 298.82 75.2159 299.047C74.5113 299.176 73.8067 299.305 73.0808 299.439C72.3509 299.568 71.6211 299.697 70.8691 299.831C70.1276 299.966 69.3861 300.101 68.6221 300.24C66.796 300.572 64.9692 300.9 63.1416 301.224C63.1416 300.734 63.1416 300.243 63.1416 299.738C64.4135 299.164 65.6858 298.591 66.9583 298.019C67.6667 297.7 68.3752 297.381 69.1051 297.052C71.6285 295.936 74.1686 294.864 76.7119 293.792C78.724 292.929 80.7336 292.06 82.7432 291.191C84.7527 290.322 86.7632 289.456 88.7744 288.59C89.6393 288.217 90.5043 287.843 91.3954 287.458C105.418 281.665 105.418 281.665 112.184 281.31C113.864 281.137 115.228 280.67 116.81 280.09C125.144 277.178 134.195 277.166 142.939 277.167Z" fill="#313036"/>
<path d="M153.381 276.068C154.552 276.079 154.873 276.086 156.027 276.242L157.522 276.453L157.856 276.501L158.093 276.742C158.814 277.475 159.24 277.905 159.57 278.339C159.912 278.788 160.146 279.234 160.524 279.946L161.188 281.193L159.791 281.404C158.897 281.539 158.003 281.675 157.082 281.814L157.081 281.813C146.956 283.356 136.912 284.909 127.047 287.431L127.04 287.433C123.755 288.246 120.456 288.976 117.168 289.705L117.169 289.706C110.083 291.285 103.001 292.883 95.9258 294.507H95.9248L92.4463 295.299C90.8081 295.671 89.1705 296.047 87.5322 296.424L87.5303 296.425C86.5825 296.642 85.6345 296.858 84.6582 297.081C82.714 297.606 81.2351 298.231 79.4238 299.144L79.3223 299.196L79.2129 299.222C77.9481 299.533 76.6732 299.799 75.3955 300.03C74.6913 300.159 73.9873 300.289 73.2617 300.422L73.2549 300.423C72.5253 300.553 71.7956 300.682 71.0439 300.815C70.304 300.95 69.5641 301.085 68.8018 301.224H68.8008C66.9733 301.556 65.1452 301.884 63.3164 302.208L62.1416 302.417V299.091L62.7305 298.826C64.0027 298.252 65.2753 297.679 66.5479 297.107L68.6943 296.14L68.7002 296.138C71.2327 295.018 73.7807 293.942 76.3232 292.871C78.3319 292.009 80.3389 291.142 82.3467 290.274C84.3568 289.405 86.3674 288.537 88.3789 287.671C89.2434 287.298 90.1083 286.925 90.999 286.541L91.0059 286.537L91.0137 286.534C97.9967 283.649 101.565 282.174 104.228 281.386C106.944 280.583 108.741 280.489 112.099 280.312C113.637 280.152 114.897 279.726 116.467 279.151L116.474 279.149L116.48 279.146C125 276.169 134.224 276.167 142.937 276.168V276.167C144.722 276.164 146.508 276.137 148.302 276.109H148.313L151.738 276.101V276.1C152.271 276.089 152.803 276.079 153.352 276.068H153.381Z" stroke="black" stroke-opacity="0.96" stroke-width="2"/>
<path d="M332.286 277.257C333.037 277.261 333.788 277.266 334.562 277.271C343.246 277.383 352.154 277.719 360.428 280.531C362.61 281.211 364.794 281.701 367.028 282.185C382.92 285.651 397.816 293.112 412.2 300.481C409.425 301.393 408.753 300.938 406.075 299.923C402.284 298.609 398.622 297.767 394.672 297.137C387.237 295.937 380.032 294.113 372.761 292.19C356.891 288.001 340.966 284.497 324.747 281.902C323.717 281.732 322.687 281.562 321.658 281.391C319.673 281.061 317.687 280.735 315.7 280.415C315.949 279.925 316.198 279.434 316.454 278.929C321.567 277.272 326.958 277.205 332.286 277.257Z" fill="#333239"/>
<path d="M332.296 276.257L332.295 276.258C333.045 276.262 333.795 276.266 334.567 276.27H334.574C343.248 276.383 352.297 276.715 360.733 279.579C362.866 280.242 365.009 280.724 367.239 281.208H367.24C383.278 284.705 398.286 292.228 412.656 299.591L414.788 300.683L412.513 301.431C411.057 301.909 410.024 302.073 408.954 301.914C407.97 301.767 406.987 301.339 405.738 300.865C402.017 299.575 398.417 298.746 394.515 298.124H394.513C387.025 296.916 379.779 295.08 372.506 293.156V293.157C356.662 288.975 340.77 285.478 324.589 282.89L324.585 282.889C323.555 282.719 322.524 282.548 321.494 282.377C319.51 282.047 317.526 281.722 315.541 281.402L314.188 281.184L314.809 279.963L315.562 278.476L315.75 278.106L316.146 277.977C321.432 276.264 326.975 276.205 332.296 276.257Z" stroke="black" stroke-opacity="0.96" stroke-width="2"/>
<path d="M363.95 252.175C361.977 257.128 357.205 258.945 352.642 261.093C351.93 261.461 351.93 261.461 351.204 261.836C347.053 263.983 342.747 265.541 338.317 267.038C337.631 267.282 336.945 267.525 336.238 267.775C331.917 269.1 327.432 269.525 322.957 270.104C322.452 270.171 321.947 270.237 321.427 270.306C313.956 271.284 306.652 271.925 299.114 271.497C299.363 270.271 299.612 269.045 299.868 267.782C302.166 267.215 304.463 266.649 306.761 266.083C308.711 265.602 310.662 265.121 312.612 264.639C320.95 262.581 320.95 262.581 324.535 261.729C329.934 260.437 335.229 258.956 340.532 257.331C346.476 255.512 352.367 254.254 358.514 253.322C360.488 252.993 362.004 252.175 363.95 252.175Z" fill="#333238"/>
<path d="M365.425 251.175L364.879 252.545C362.731 257.935 357.506 259.909 353.096 261.984C352.389 262.349 352.388 262.351 351.664 262.725C347.442 264.908 343.074 266.486 338.638 267.986C337.956 268.227 337.275 268.469 336.572 268.718L336.552 268.725L336.531 268.731C332.107 270.088 327.51 270.523 323.085 271.096L323.084 271.095C322.58 271.162 322.077 271.229 321.558 271.297H321.557C314.061 272.279 306.686 272.928 299.058 272.495L297.904 272.43L298.134 271.298L298.888 267.582L299.014 266.962L299.629 266.811C301.926 266.245 304.224 265.679 306.521 265.113L312.373 263.668C320.709 261.61 320.714 261.609 324.303 260.756L326.313 260.265C330.996 259.099 335.613 257.792 340.239 256.374C346.233 254.54 352.168 253.273 358.35 252.335L358.688 252.274C359.464 252.118 360.167 251.889 360.971 251.662C361.863 251.41 362.836 251.175 363.95 251.175H365.425Z" stroke="black" stroke-opacity="0.96" stroke-width="2"/>
<path d="M112.146 252.175C115.597 252.69 118.948 253.449 122.323 254.312C126.173 255.282 130.02 256.176 133.915 256.959C138.572 257.919 143.126 259.133 147.7 260.415C152.547 261.768 157.42 262.977 162.316 264.144C164.737 264.763 167.075 265.503 169.442 266.295C170.491 266.572 171.543 266.838 172.599 267.085C175.474 267.782 175.474 267.782 177.735 268.525C177.487 269.506 177.238 270.487 176.981 271.497C158.602 272.146 138.144 269.773 122.229 260.025C121.755 259.741 121.28 259.457 120.792 259.164C119.41 258.332 118.039 257.486 116.669 256.634C116.222 256.363 115.775 256.092 115.315 255.812C114.231 255.136 113.184 254.403 112.146 253.661C112.146 253.171 112.146 252.681 112.146 252.175Z" fill="#323137"/>
<path d="M112.293 251.186C115.791 251.707 119.177 252.475 122.567 253.342L125.445 254.052C128.324 254.747 131.205 255.395 134.111 255.979L134.116 255.98C138.809 256.947 143.389 258.169 147.97 259.452L149.781 259.951C152.804 260.772 155.839 261.543 158.886 262.288L162.548 263.171L162.563 263.175C165.007 263.799 167.358 264.544 169.722 265.334C170.234 265.47 170.747 265.602 171.261 265.731L172.827 266.112L172.835 266.113C175.729 266.814 175.756 266.821 178.048 267.575L178.934 267.866L178.705 268.771C178.456 269.752 178.207 270.733 177.951 271.744L177.767 272.47L177.017 272.496C158.561 273.148 137.874 270.777 121.715 260.882C121.241 260.598 120.767 260.314 120.278 260.022L120.276 260.021C118.889 259.185 117.512 258.336 116.141 257.484V257.483C115.697 257.214 115.253 256.945 114.796 256.667L114.785 256.661C113.674 255.967 112.606 255.219 111.564 254.475L111.146 254.176V251.015L112.293 251.186Z" stroke="black" stroke-opacity="0.96" stroke-width="2"/>
<path d="M134.698 15.5006C136.657 15.9347 137.335 16.5028 138.532 18.0785C139.687 23.1203 139.687 23.1203 138.297 26.2533C137.877 26.7438 137.457 27.2343 137.024 27.7396C136.527 27.7396 136.029 27.7396 135.517 27.7396C135.517 28.2301 135.517 28.7206 135.517 29.226C129.685 29.4471 129.685 29.4471 127.224 27.7396C125.365 24.992 125.125 22.7518 125.716 19.5648C128.169 15.8205 130.461 15.4436 134.698 15.5006Z" fill="#F0E49D"/>
<path d="M134.711 14.5005L134.814 14.5025L134.915 14.524C135.958 14.7552 136.759 15.0438 137.473 15.5416C137.998 15.9077 138.437 16.3612 138.88 16.9029L139.329 17.4732L139.458 17.6451L139.507 17.855C140.07 20.3096 140.403 21.7279 140.369 22.9107C140.332 24.1674 139.884 25.1405 139.21 26.6588L139.151 26.7925L139.056 26.9039C138.636 27.3943 138.216 27.8849 137.784 28.3902L137.485 28.7398H136.516V30.189L135.554 30.2252C132.702 30.3333 131.102 30.4 129.93 30.19C128.646 29.9598 127.858 29.3964 126.654 28.5611L126.5 28.4547L126.395 28.2994C125.403 26.8325 124.812 25.4533 124.565 23.983C124.32 22.5222 124.426 21.0374 124.733 19.3824L124.769 19.1851L124.879 19.0172C126.18 17.0319 127.512 15.8298 129.171 15.1763C130.581 14.6212 132.144 14.4987 133.931 14.4957L134.711 14.5005Z" stroke="black" stroke-opacity="0.96" stroke-width="2"/>
<path d="M156.626 15.849C156.626 16.3395 156.626 16.83 156.626 17.3353C157.108 17.5652 157.59 17.7952 158.087 18.032C159.642 18.8217 159.642 18.8217 160.396 19.5648C160.697 22.6594 160.729 24.2635 158.982 26.9036C157.098 28.7611 156.383 29.1587 153.752 29.5046C150.577 29.1364 149.611 27.8559 147.579 25.5101C147.33 25.2649 147.082 25.0196 146.825 24.767C146.495 22.3517 146.495 22.3517 146.825 19.5648C149.914 16.0746 151.831 15.3764 156.626 15.849Z" fill="#80DECA"/>
<path d="M157.626 16.7034L158.517 17.1292L158.528 17.135L158.54 17.1409C159.29 17.5217 159.745 17.7506 160.094 17.9827C160.381 18.1731 160.597 18.3653 160.841 18.6008L161.097 18.8528L161.355 19.1067L161.39 19.468C161.54 21.005 161.64 22.2981 161.445 23.5569C161.245 24.851 160.748 26.0471 159.816 27.4553L159.759 27.5422L159.684 27.6155C158.738 28.5483 157.992 29.2119 157.097 29.6633C156.197 30.1178 155.22 30.3206 153.883 30.4963L153.76 30.512L153.636 30.4983C151.911 30.2982 150.701 29.8354 149.642 29.053C148.646 28.3169 147.816 27.3119 146.846 26.1917C146.608 25.9565 146.369 25.721 146.123 25.4788L145.881 25.2395L145.835 24.9026C145.673 23.7172 145.578 23.0378 145.578 22.3049C145.578 21.5817 145.67 20.8156 145.832 19.4475L145.869 19.137L146.076 18.9026C147.656 17.117 149.039 15.9235 150.733 15.2854C152.419 14.6503 154.287 14.6135 156.724 14.8538L157.626 14.9426V16.7034Z" stroke="black" stroke-opacity="0.96" stroke-width="2"/>
<path d="M113.653 15.849C113.653 16.3395 113.653 16.83 113.653 17.3354C114.135 17.55 114.617 17.7646 115.114 17.9856C116.669 18.8217 116.669 18.8217 117.423 20.308C117.844 23.3535 117.526 24.5951 115.915 27.2752C113.29 29.5391 113.29 29.5391 110.544 29.644C107.622 29.226 107.622 29.226 106.161 28.2506C104.301 25.3384 104.137 22.1592 104.607 18.8217C106.877 15.0913 109.649 15.5859 113.653 15.849Z" fill="#F3AB8D"/>
<path d="M114.653 16.6857L115.521 17.0724L115.554 17.087L115.588 17.1046C116.308 17.4921 116.86 17.7775 117.278 18.1984C117.597 18.5194 117.824 18.9048 118.065 19.3673L118.315 19.8556L118.39 20.005L118.414 20.171C118.631 21.7388 118.673 22.9484 118.407 24.1456C118.142 25.3349 117.591 26.4286 116.772 27.7902L116.689 27.9279L116.568 28.0323C115.312 29.1162 114.521 29.8131 113.678 30.1847C112.795 30.5743 111.889 30.5937 110.582 30.6437L110.491 30.6466L110.402 30.6339C108.986 30.4312 108.149 30.3155 107.502 30.1095C106.796 29.8851 106.314 29.555 105.606 29.0822L105.431 28.9659L105.319 28.7892C103.277 25.5918 103.13 22.1331 103.616 18.6818L103.645 18.4777L103.753 18.3019C105.015 16.2273 106.498 15.232 108.275 14.8595C109.925 14.5137 111.809 14.7262 113.719 14.8517L114.653 14.9122V16.6857Z" stroke="black" stroke-opacity="0.96" stroke-width="2"/>
<path d="M41.2783 124.351C40.5428 125.968 40.0078 127.131 38.604 128.268C37.0249 130.121 37.2083 131.503 37.1828 133.899C37.1679 134.792 37.1529 135.685 37.1376 136.604C37.1328 137.568 37.1279 138.532 37.123 139.525C37.1103 140.521 37.0966 141.518 37.082 142.514C37.0461 145.135 37.0237 147.756 37.004 150.376C36.9815 153.051 36.9464 155.726 36.9124 158.402C36.8475 163.649 36.7968 168.896 36.7549 174.143C36.5061 174.143 36.2573 174.143 36.001 174.143C35.9134 168.309 35.8465 162.476 35.8056 156.642C35.786 153.933 35.7594 151.224 35.7166 148.515C35.6755 145.898 35.6531 143.282 35.6433 140.665C35.633 139.186 35.6036 137.706 35.5739 136.227C35.5715 128.721 35.5715 128.721 37.8145 125.933C39.7705 124.351 39.7705 124.351 41.2783 124.351Z" fill="#2C2038"/>
<path d="M42.8315 123.351L42.189 124.765C41.4675 126.352 40.8598 127.694 39.3198 128.972C38.6731 129.745 38.4147 130.378 38.2954 131.053C38.1595 131.823 38.1967 132.633 38.1831 133.911V133.916C38.1682 134.809 38.1526 135.701 38.1372 136.62C38.1324 137.58 38.1275 138.541 38.1226 139.53V139.537C38.1099 140.535 38.0962 141.532 38.0815 142.529C38.0458 145.146 38.0241 147.764 38.0044 150.384V150.385C37.9819 153.063 37.9466 155.74 37.9126 158.414C37.8477 163.659 37.7963 168.905 37.7544 174.151L37.7466 175.143H35.0161L35.0015 174.158C34.9139 168.322 34.8471 162.486 34.8062 156.649C34.7865 153.941 34.7591 151.236 34.7163 148.531C34.6752 145.91 34.6528 143.291 34.6431 140.672L34.6157 138.462C34.6034 137.725 34.5886 136.986 34.5737 136.246V136.227C34.5726 132.539 34.5663 130.519 34.8755 129.098C35.2129 127.548 35.9314 126.678 37.0356 125.306L37.1021 125.223L37.1851 125.156C38.108 124.409 38.7206 123.903 39.2993 123.639C39.9658 123.335 40.5741 123.351 41.2778 123.351H42.8315Z" stroke="black" stroke-opacity="0.96" stroke-width="2"/>
</svg>
